<?xml version="1.0" encoding="UTF-8" standalone="no"?>
<!DOCTYPE svg PUBLIC "-//W3C//DTD SVG 1.1//EN"
 "http://www.w3.org/Graphics/SVG/1.1/DTD/svg11.dtd">
<!-- Generated by graphviz version 2.40.1 (20161225.0304)
 -->
<!-- Title: largeRelationshipsDiagram Pages: 1 -->
<svg width="404pt" height="485pt"
 viewBox="0.00 0.00 404.00 485.20" xmlns="http://www.w3.org/2000/svg" xmlns:xlink="http://www.w3.org/1999/xlink">
<g id="graph0" class="graph" transform="scale(1 1) rotate(0) translate(4 481.2)">
<title>largeRelationshipsDiagram</title>
<polygon fill="#ffffff" stroke="transparent" points="-4,4 -4,-481.2 400,-481.2 400,4 -4,4"/>
<text text-anchor="middle" x="72.4936" y="-7.3" font-family="Helvetica,sans-Serif" font-size="11.00" fill="#000000">Generated by SchemaSpy</text>
<!-- rentals -->
<g id="node1" class="node">
<title>rentals</title>
<g id="a_node1"><a xlink:href="../../tables/rentals.html" xlink:title="rentals" target="_top">
<polygon fill="#ffffff" stroke="transparent" points="301,-223.2 301,-397.2 388,-397.2 388,-223.2 301,-223.2"/>
<polygon fill="#f5f5f5" stroke="transparent" points="301.5,-374.2 301.5,-397.2 388.5,-397.2 388.5,-374.2 301.5,-374.2"/>
<polygon fill="none" stroke="#000000" points="301.5,-374.2 301.5,-397.2 388.5,-397.2 388.5,-374.2 301.5,-374.2"/>
<text text-anchor="start" x="306.5" y="-382.8" font-family="Helvetica,sans-Serif" font-weight="bold" font-size="11.00" fill="#000000">rentals</text>
<text text-anchor="start" x="353.5437" y="-382.3" font-family="Helvetica,sans-Serif" font-size="11.00" fill="#000000">[table]</text>
<polygon fill="none" stroke="#000000" points="301.5,-352.2 301.5,-374.2 388.5,-374.2 388.5,-352.2 301.5,-352.2"/>
<image xlink:href="../../images/primaryKeys.png" width="11px" height="12px" preserveAspectRatio="xMinYMin meet" x="306.5" y="-369.2"/>
<text text-anchor="start" x="321.5" y="-359.3" font-family="Helvetica,sans-Serif" font-size="11.00" fill="#000000">rental_id</text>
<polygon fill="none" stroke="#000000" points="301.5,-330.2 301.5,-352.2 388.5,-352.2 388.5,-330.2 301.5,-330.2"/>
<image xlink:href="../../images/foreignKeys.png" width="11px" height="12px" preserveAspectRatio="xMinYMin meet" x="306.5" y="-347.2"/>
<text text-anchor="start" x="321.5" y="-337.3" font-family="Helvetica,sans-Serif" font-size="11.00" fill="#000000">user_id</text>
<polygon fill="none" stroke="#000000" points="301.5,-308.2 301.5,-330.2 388.5,-330.2 388.5,-308.2 301.5,-308.2"/>
<image xlink:href="../../images/foreignKeys.png" width="11px" height="12px" preserveAspectRatio="xMinYMin meet" x="306.5" y="-325.2"/>
<text text-anchor="start" x="321.5" y="-315.3" font-family="Helvetica,sans-Serif" font-size="11.00" fill="#000000">dvd_id</text>
<polygon fill="none" stroke="#000000" points="301.5,-286.2 301.5,-308.2 388.5,-308.2 388.5,-286.2 301.5,-286.2"/>
<text text-anchor="start" x="321.5" y="-293.3" font-family="Helvetica,sans-Serif" font-size="11.00" fill="#000000">rental_date</text>
<polygon fill="none" stroke="#000000" points="301.5,-264.2 301.5,-286.2 388.5,-286.2 388.5,-264.2 301.5,-264.2"/>
<text text-anchor="start" x="321.5" y="-271.3" font-family="Helvetica,sans-Serif" font-size="11.00" fill="#000000">return_date</text>
<polygon fill="none" stroke="#000000" points="301.5,-242.2 301.5,-264.2 388.5,-264.2 388.5,-242.2 301.5,-242.2"/>
<text text-anchor="start" x="321.5" y="-249.3" font-family="Helvetica,sans-Serif" font-size="11.00" fill="#000000">status</text>
<polygon fill="#ffffff" stroke="transparent" points="301.5,-223.2 301.5,-242.2 330.5,-242.2 330.5,-223.2 301.5,-223.2"/>
<polygon fill="none" stroke="#000000" points="301.5,-223.2 301.5,-242.2 330.5,-242.2 330.5,-223.2 301.5,-223.2"/>
<text text-anchor="start" x="304.5" y="-229.3" font-family="Helvetica,sans-Serif" font-size="11.00" fill="#000000">&lt; 2</text>
<polygon fill="#ffffff" stroke="transparent" points="330.5,-223.2 330.5,-242.2 372.5,-242.2 372.5,-223.2 330.5,-223.2"/>
<polygon fill="none" stroke="#000000" points="330.5,-223.2 330.5,-242.2 372.5,-242.2 372.5,-223.2 330.5,-223.2"/>
<text text-anchor="start" x="337.1105" y="-229.3" font-family="Helvetica,sans-Serif" font-size="11.00" fill="#000000">2 rows</text>
<polygon fill="#ffffff" stroke="transparent" points="372.5,-223.2 372.5,-242.2 388.5,-242.2 388.5,-223.2 372.5,-223.2"/>
<polygon fill="none" stroke="#000000" points="372.5,-223.2 372.5,-242.2 388.5,-242.2 388.5,-223.2 372.5,-223.2"/>
<text text-anchor="start" x="379.3862" y="-229.3" font-family="Helvetica,sans-Serif" font-size="11.00" fill="#000000"> &#160;</text>
</a>
</g>
</g>
<!-- dvds -->
<g id="node2" class="node">
<title>dvds</title>
<g id="a_node2"><a xlink:href="../../tables/dvds.html" xlink:title="dvds" target="_top">
<polygon fill="#ffffff" stroke="transparent" points="135,-38.2 135,-256.2 252,-256.2 252,-38.2 135,-38.2"/>
<polygon fill="#f5f5f5" stroke="transparent" points="135.5,-233.2 135.5,-256.2 252.5,-256.2 252.5,-233.2 135.5,-233.2"/>
<polygon fill="none" stroke="#000000" points="135.5,-233.2 135.5,-256.2 252.5,-256.2 252.5,-233.2 135.5,-233.2"/>
<text text-anchor="start" x="140.5" y="-241.8" font-family="Helvetica,sans-Serif" font-weight="bold" font-size="11.00" fill="#000000">dvds</text>
<text text-anchor="start" x="217.5437" y="-241.3" font-family="Helvetica,sans-Serif" font-size="11.00" fill="#000000">[table]</text>
<polygon fill="none" stroke="#000000" points="135.5,-211.2 135.5,-233.2 252.5,-233.2 252.5,-211.2 135.5,-211.2"/>
<image xlink:href="../../images/primaryKeys.png" width="11px" height="12px" preserveAspectRatio="xMinYMin meet" x="140.5" y="-228.2"/>
<text text-anchor="start" x="155.5" y="-218.3" font-family="Helvetica,sans-Serif" font-size="11.00" fill="#000000">dvd_id</text>
<polygon fill="none" stroke="#000000" points="135.5,-189.2 135.5,-211.2 252.5,-211.2 252.5,-189.2 135.5,-189.2"/>
<text text-anchor="start" x="155.5" y="-196.3" font-family="Helvetica,sans-Serif" font-size="11.00" fill="#000000">title</text>
<polygon fill="none" stroke="#000000" points="135.5,-167.2 135.5,-189.2 252.5,-189.2 252.5,-167.2 135.5,-167.2"/>
<image xlink:href="../../images/foreignKeys.png" width="11px" height="12px" preserveAspectRatio="xMinYMin meet" x="140.5" y="-184.2"/>
<text text-anchor="start" x="155.5" y="-174.3" font-family="Helvetica,sans-Serif" font-size="11.00" fill="#000000">genre_id</text>
<polygon fill="none" stroke="#000000" points="135.5,-145.2 135.5,-167.2 252.5,-167.2 252.5,-145.2 135.5,-145.2"/>
<text text-anchor="start" x="155.5" y="-152.3" font-family="Helvetica,sans-Serif" font-size="11.00" fill="#000000">release_date</text>
<polygon fill="none" stroke="#000000" points="135.5,-123.2 135.5,-145.2 252.5,-145.2 252.5,-123.2 135.5,-123.2"/>
<text text-anchor="start" x="155.5" y="-130.3" font-family="Helvetica,sans-Serif" font-size="11.00" fill="#000000">stock_count</text>
<polygon fill="none" stroke="#000000" points="135.5,-101.2 135.5,-123.2 252.5,-123.2 252.5,-101.2 135.5,-101.2"/>
<text text-anchor="start" x="155.5" y="-108.3" font-family="Helvetica,sans-Serif" font-size="11.00" fill="#000000">total_stock</text>
<polygon fill="none" stroke="#000000" points="135.5,-79.2 135.5,-101.2 252.5,-101.2 252.5,-79.2 135.5,-79.2"/>
<text text-anchor="start" x="155.5" y="-86.3" font-family="Helvetica,sans-Serif" font-size="11.00" fill="#000000">storage_location</text>
<polygon fill="none" stroke="#000000" points="135.5,-57.2 135.5,-79.2 252.5,-79.2 252.5,-57.2 135.5,-57.2"/>
<text text-anchor="start" x="155.5" y="-64.3" font-family="Helvetica,sans-Serif" font-size="11.00" fill="#000000">description</text>
<polygon fill="#ffffff" stroke="transparent" points="135.5,-38.2 135.5,-57.2 174.5,-57.2 174.5,-38.2 135.5,-38.2"/>
<polygon fill="none" stroke="#000000" points="135.5,-38.2 135.5,-57.2 174.5,-57.2 174.5,-38.2 135.5,-38.2"/>
<text text-anchor="start" x="138.5" y="-44.3" font-family="Helvetica,sans-Serif" font-size="11.00" fill="#000000">&lt; 1</text>
<polygon fill="#ffffff" stroke="transparent" points="174.5,-38.2 174.5,-57.2 221.5,-57.2 221.5,-38.2 174.5,-38.2"/>
<polygon fill="none" stroke="#000000" points="174.5,-38.2 174.5,-57.2 221.5,-57.2 221.5,-38.2 174.5,-38.2"/>
<text text-anchor="start" x="186.1105" y="-44.3" font-family="Helvetica,sans-Serif" font-size="11.00" fill="#000000">3 rows</text>
<polygon fill="#ffffff" stroke="transparent" points="221.5,-38.2 221.5,-57.2 252.5,-57.2 252.5,-38.2 221.5,-38.2"/>
<polygon fill="none" stroke="#000000" points="221.5,-38.2 221.5,-57.2 252.5,-57.2 252.5,-38.2 221.5,-38.2"/>
<text text-anchor="start" x="233.9053" y="-44.3" font-family="Helvetica,sans-Serif" font-size="11.00" fill="#000000">1 &gt;</text>
</a>
</g>
</g>
<!-- rentals&#45;&gt;dvds -->
<g id="edge2" class="edge">
<title>rentals:w&#45;&gt;dvds:e</title>
<path fill="none" stroke="#000000" d="M287.5083,-315.032C263.6018,-296.4656 294.762,-222.2 252.5,-222.2"/>
<polygon fill="#000000" stroke="#000000" points="293.8329,-316.916 300.4722,-322.6502 297.6665,-318.058 301.5,-319.2 301.5,-319.2 301.5,-319.2 297.6665,-318.058 302.5278,-315.7498 293.8329,-316.916 293.8329,-316.916"/>
<ellipse fill="none" stroke="#000000" cx="290.7661" cy="-316.0024" rx="3.2" ry="3.2"/>
</g>
<!-- users -->
<g id="node4" class="node">
<title>users</title>
<g id="a_node4"><a xlink:href="../../tables/users.html" xlink:title="users" target="_top">
<polygon fill="#ffffff" stroke="transparent" points="142.5,-277.2 142.5,-473.2 244.5,-473.2 244.5,-277.2 142.5,-277.2"/>
<polygon fill="#f5f5f5" stroke="transparent" points="142.5,-450.2 142.5,-473.2 244.5,-473.2 244.5,-450.2 142.5,-450.2"/>
<polygon fill="none" stroke="#000000" points="142.5,-450.2 142.5,-473.2 244.5,-473.2 244.5,-450.2 142.5,-450.2"/>
<text text-anchor="start" x="147.5" y="-458.8" font-family="Helvetica,sans-Serif" font-weight="bold" font-size="11.00" fill="#000000">users</text>
<text text-anchor="start" x="209.5437" y="-458.3" font-family="Helvetica,sans-Serif" font-size="11.00" fill="#000000">[table]</text>
<polygon fill="none" stroke="#000000" points="142.5,-428.2 142.5,-450.2 244.5,-450.2 244.5,-428.2 142.5,-428.2"/>
<image xlink:href="../../images/primaryKeys.png" width="11px" height="12px" preserveAspectRatio="xMinYMin meet" x="147.5" y="-445.2"/>
<text text-anchor="start" x="162.5" y="-435.3" font-family="Helvetica,sans-Serif" font-size="11.00" fill="#000000">user_id</text>
<polygon fill="none" stroke="#000000" points="142.5,-406.2 142.5,-428.2 244.5,-428.2 244.5,-406.2 142.5,-406.2"/>
<text text-anchor="start" x="162.5" y="-413.3" font-family="Helvetica,sans-Serif" font-size="11.00" fill="#000000">name</text>
<polygon fill="none" stroke="#000000" points="142.5,-384.2 142.5,-406.2 244.5,-406.2 244.5,-384.2 142.5,-384.2"/>
<text text-anchor="start" x="162.5" y="-391.3" font-family="Helvetica,sans-Serif" font-size="11.00" fill="#000000">address</text>
<polygon fill="#ffffff" stroke="transparent" points="142.5,-362.2 142.5,-384.2 244.5,-384.2 244.5,-362.2 142.5,-362.2"/>
<polygon fill="none" stroke="#000000" points="142.5,-362.2 142.5,-384.2 244.5,-384.2 244.5,-362.2 142.5,-362.2"/>
<text text-anchor="start" x="162.5" y="-369.3" font-family="Helvetica,sans-Serif" font-size="11.00" fill="#000000">phone</text>
<polygon fill="none" stroke="#000000" points="142.5,-340.2 142.5,-362.2 244.5,-362.2 244.5,-340.2 142.5,-340.2"/>
<text text-anchor="start" x="162.5" y="-347.3" font-family="Helvetica,sans-Serif" font-size="11.00" fill="#000000">birth_date</text>
<polygon fill="none" stroke="#000000" points="142.5,-318.2 142.5,-340.2 244.5,-340.2 244.5,-318.2 142.5,-318.2"/>
<text text-anchor="start" x="162.5" y="-325.3" font-family="Helvetica,sans-Serif" font-size="11.00" fill="#000000">created_at</text>
<polygon fill="#ffffff" stroke="transparent" points="142.5,-296.2 142.5,-318.2 244.5,-318.2 244.5,-296.2 142.5,-296.2"/>
<polygon fill="none" stroke="#000000" points="142.5,-296.2 142.5,-318.2 244.5,-318.2 244.5,-296.2 142.5,-296.2"/>
<text text-anchor="start" x="162.5" y="-303.3" font-family="Helvetica,sans-Serif" font-size="11.00" fill="#000000">member_code</text>
<polygon fill="#ffffff" stroke="transparent" points="142.5,-277.2 142.5,-296.2 169.5,-296.2 169.5,-277.2 142.5,-277.2"/>
<polygon fill="none" stroke="#000000" points="142.5,-277.2 142.5,-296.2 169.5,-296.2 169.5,-277.2 142.5,-277.2"/>
<text text-anchor="start" x="145.5" y="-283.3" font-family="Helvetica,sans-Serif" font-size="11.00" fill="#000000"> &#160;</text>
<polygon fill="#ffffff" stroke="transparent" points="169.5,-277.2 169.5,-296.2 215.5,-296.2 215.5,-277.2 169.5,-277.2"/>
<polygon fill="none" stroke="#000000" points="169.5,-277.2 169.5,-296.2 215.5,-296.2 215.5,-277.2 169.5,-277.2"/>
<text text-anchor="start" x="180.1105" y="-283.3" font-family="Helvetica,sans-Serif" font-size="11.00" fill="#000000">3 rows</text>
<polygon fill="#ffffff" stroke="transparent" points="215.5,-277.2 215.5,-296.2 244.5,-296.2 244.5,-277.2 215.5,-277.2"/>
<polygon fill="none" stroke="#000000" points="215.5,-277.2 215.5,-296.2 244.5,-296.2 244.5,-277.2 215.5,-277.2"/>
<text text-anchor="start" x="225.9053" y="-283.3" font-family="Helvetica,sans-Serif" font-size="11.00" fill="#000000">1 &gt;</text>
</a>
</g>
</g>
<!-- rentals&#45;&gt;users -->
<g id="edge3" class="edge">
<title>rentals:w&#45;&gt;users:e</title>
<path fill="none" stroke="#000000" d="M287.362,-344.922C260.0793,-362.8229 288.9824,-439.2 244.5,-439.2"/>
<polygon fill="#000000" stroke="#000000" points="293.7636,-343.2368 302.4165,-344.6814 297.6318,-342.2184 301.5,-341.2 301.5,-341.2 301.5,-341.2 297.6318,-342.2184 300.5835,-337.7186 293.7636,-343.2368 293.7636,-343.2368"/>
<ellipse fill="none" stroke="#000000" cx="290.6691" cy="-344.0515" rx="3.2" ry="3.2"/>
</g>
<!-- genres -->
<g id="node3" class="node">
<title>genres</title>
<g id="a_node3"><a xlink:href="../../tables/genres.html" xlink:title="genres" target="_top">
<polygon fill="#ffffff" stroke="transparent" points="8,-126.2 8,-212.2 86,-212.2 86,-126.2 8,-126.2"/>
<polygon fill="#f5f5f5" stroke="transparent" points="8,-189.2 8,-212.2 86,-212.2 86,-189.2 8,-189.2"/>
<polygon fill="none" stroke="#000000" points="8,-189.2 8,-212.2 86,-212.2 86,-189.2 8,-189.2"/>
<text text-anchor="start" x="13" y="-197.8" font-family="Helvetica,sans-Serif" font-weight="bold" font-size="11.00" fill="#000000">genres</text>
<text text-anchor="start" x="51.5219" y="-197.3" font-family="Helvetica,sans-Serif" font-size="11.00" fill="#000000">[table]</text>
<polygon fill="none" stroke="#000000" points="8,-167.2 8,-189.2 86,-189.2 86,-167.2 8,-167.2"/>
<image xlink:href="../../images/primaryKeys.png" width="11px" height="12px" preserveAspectRatio="xMinYMin meet" x="13" y="-184.2"/>
<text text-anchor="start" x="32" y="-174.3" font-family="Helvetica,sans-Serif" font-size="11.00" fill="#000000">genre_id</text>
<polygon fill="none" stroke="#000000" points="8,-145.2 8,-167.2 86,-167.2 86,-145.2 8,-145.2"/>
<text text-anchor="start" x="32" y="-152.3" font-family="Helvetica,sans-Serif" font-size="11.00" fill="#000000">name</text>
<polygon fill="#ffffff" stroke="transparent" points="8,-126.2 8,-145.2 23,-145.2 23,-126.2 8,-126.2"/>
<polygon fill="none" stroke="#000000" points="8,-126.2 8,-145.2 23,-145.2 23,-126.2 8,-126.2"/>
<text text-anchor="start" x="11" y="-132.3" font-family="Helvetica,sans-Serif" font-size="11.00" fill="#000000"> &#160;</text>
<polygon fill="#ffffff" stroke="transparent" points="23,-126.2 23,-145.2 63,-145.2 63,-126.2 23,-126.2"/>
<polygon fill="none" stroke="#000000" points="23,-126.2 23,-145.2 63,-145.2 63,-126.2 23,-126.2"/>
<text text-anchor="start" x="27.6105" y="-132.3" font-family="Helvetica,sans-Serif" font-size="11.00" fill="#000000">4 rows</text>
<polygon fill="#ffffff" stroke="transparent" points="63,-126.2 63,-145.2 86,-145.2 86,-126.2 63,-126.2"/>
<polygon fill="none" stroke="#000000" points="63,-126.2 63,-145.2 86,-145.2 86,-126.2 63,-126.2"/>
<text text-anchor="start" x="67.4053" y="-132.3" font-family="Helvetica,sans-Serif" font-size="11.00" fill="#000000">1 &gt;</text>
</a>
</g>
</g>
<!-- dvds&#45;&gt;genres -->
<g id="edge1" class="edge">
<title>dvds:w&#45;&gt;genres:e</title>
<path fill="none" stroke="#000000" d="M120.8428,-178.2C109.4139,-178.2 102.1563,-178.2 86,-178.2"/>
<polygon fill="#000000" stroke="#000000" points="127.5,-178.2001 135.5,-181.8 131.5,-178.2 135.5,-178.2 135.5,-178.2 135.5,-178.2 131.5,-178.2 135.5,-174.6 127.5,-178.2001 127.5,-178.2001"/>
<ellipse fill="none" stroke="#000000" cx="124.3" cy="-178.2001" rx="3.2" ry="3.2"/>
</g>
</g>
</svg>
