<?xml version="1.0" encoding="UTF-8" standalone="no"?>
<!DOCTYPE svg PUBLIC "-//W3C//DTD SVG 1.1//EN"
 "http://www.w3.org/Graphics/SVG/1.1/DTD/svg11.dtd">
<!-- Generated by graphviz version 2.40.1 (20161225.0304)
 -->
<!-- Title: compactRelationshipsDiagram Pages: 1 -->
<svg width="404pt" height="303pt"
 viewBox="0.00 0.00 404.00 303.20" xmlns="http://www.w3.org/2000/svg" xmlns:xlink="http://www.w3.org/1999/xlink">
<g id="graph0" class="graph" transform="scale(1 1) rotate(0) translate(4 299.2)">
<title>compactRelationshipsDiagram</title>
<polygon fill="#ffffff" stroke="transparent" points="-4,4 -4,-299.2 400,-299.2 400,4 -4,4"/>
<text text-anchor="middle" x="72.4936" y="-7.3" font-family="Helvetica,sans-Serif" font-size="11.00" fill="#000000">Generated by SchemaSpy</text>
<!-- rentals -->
<g id="node1" class="node">
<title>rentals</title>
<g id="a_node1"><a xlink:href="../../tables/rentals.html" xlink:title="rentals" target="_top">
<polygon fill="#ffffff" stroke="transparent" points="301,-123.2 301,-250.2 388,-250.2 388,-123.2 301,-123.2"/>
<polygon fill="#f5f5f5" stroke="transparent" points="301.5,-226.7 301.5,-249.7 388.5,-249.7 388.5,-226.7 301.5,-226.7"/>
<polygon fill="none" stroke="#000000" points="301.5,-226.7 301.5,-249.7 388.5,-249.7 388.5,-226.7 301.5,-226.7"/>
<text text-anchor="start" x="306.5" y="-235.3" font-family="Helvetica,sans-Serif" font-weight="bold" font-size="11.00" fill="#000000">rentals</text>
<text text-anchor="start" x="353.5437" y="-234.8" font-family="Helvetica,sans-Serif" font-size="11.00" fill="#000000">[table]</text>
<polygon fill="none" stroke="#000000" points="301.5,-204.7 301.5,-226.7 388.5,-226.7 388.5,-204.7 301.5,-204.7"/>
<image xlink:href="../../images/primaryKeys.png" width="11px" height="12px" preserveAspectRatio="xMinYMin meet" x="306.5" y="-221.7"/>
<text text-anchor="start" x="321.5" y="-211.8" font-family="Helvetica,sans-Serif" font-size="11.00" fill="#000000">rental_id</text>
<polygon fill="none" stroke="#000000" points="301.5,-182.7 301.5,-204.7 388.5,-204.7 388.5,-182.7 301.5,-182.7"/>
<image xlink:href="../../images/foreignKeys.png" width="11px" height="12px" preserveAspectRatio="xMinYMin meet" x="306.5" y="-199.7"/>
<text text-anchor="start" x="321.5" y="-189.8" font-family="Helvetica,sans-Serif" font-size="11.00" fill="#000000">user_id</text>
<polygon fill="none" stroke="#000000" points="301.5,-160.7 301.5,-182.7 388.5,-182.7 388.5,-160.7 301.5,-160.7"/>
<image xlink:href="../../images/foreignKeys.png" width="11px" height="12px" preserveAspectRatio="xMinYMin meet" x="306.5" y="-177.7"/>
<text text-anchor="start" x="321.5" y="-167.8" font-family="Helvetica,sans-Serif" font-size="11.00" fill="#000000">dvd_id</text>
<polygon fill="none" stroke="#000000" points="301.5,-141.7 301.5,-160.7 388.5,-160.7 388.5,-141.7 301.5,-141.7"/>
<text text-anchor="start" x="304.5" y="-147.8" font-family="Helvetica,sans-Serif" font-size="11.00" fill="#000000">...</text>
<polygon fill="#ffffff" stroke="transparent" points="301.5,-122.7 301.5,-141.7 330.5,-141.7 330.5,-122.7 301.5,-122.7"/>
<polygon fill="none" stroke="#000000" points="301.5,-122.7 301.5,-141.7 330.5,-141.7 330.5,-122.7 301.5,-122.7"/>
<text text-anchor="start" x="304.5" y="-128.8" font-family="Helvetica,sans-Serif" font-size="11.00" fill="#000000">&lt; 2</text>
<polygon fill="#ffffff" stroke="transparent" points="330.5,-122.7 330.5,-141.7 372.5,-141.7 372.5,-122.7 330.5,-122.7"/>
<polygon fill="none" stroke="#000000" points="330.5,-122.7 330.5,-141.7 372.5,-141.7 372.5,-122.7 330.5,-122.7"/>
<text text-anchor="start" x="337.1105" y="-128.8" font-family="Helvetica,sans-Serif" font-size="11.00" fill="#000000">2 rows</text>
<polygon fill="#ffffff" stroke="transparent" points="372.5,-122.7 372.5,-141.7 388.5,-141.7 388.5,-122.7 372.5,-122.7"/>
<polygon fill="none" stroke="#000000" points="372.5,-122.7 372.5,-141.7 388.5,-141.7 388.5,-122.7 372.5,-122.7"/>
<text text-anchor="start" x="379.3862" y="-128.8" font-family="Helvetica,sans-Serif" font-size="11.00" fill="#000000"> &#160;</text>
</a>
</g>
</g>
<!-- dvds -->
<g id="node2" class="node">
<title>dvds</title>
<g id="a_node2"><a xlink:href="../../tables/dvds.html" xlink:title="dvds" target="_top">
<polygon fill="#ffffff" stroke="transparent" points="135,-38.2 135,-143.2 252,-143.2 252,-38.2 135,-38.2"/>
<polygon fill="#f5f5f5" stroke="transparent" points="135.5,-119.7 135.5,-142.7 252.5,-142.7 252.5,-119.7 135.5,-119.7"/>
<polygon fill="none" stroke="#000000" points="135.5,-119.7 135.5,-142.7 252.5,-142.7 252.5,-119.7 135.5,-119.7"/>
<text text-anchor="start" x="140.5" y="-128.3" font-family="Helvetica,sans-Serif" font-weight="bold" font-size="11.00" fill="#000000">dvds</text>
<text text-anchor="start" x="217.5437" y="-127.8" font-family="Helvetica,sans-Serif" font-size="11.00" fill="#000000">[table]</text>
<polygon fill="none" stroke="#000000" points="135.5,-97.7 135.5,-119.7 252.5,-119.7 252.5,-97.7 135.5,-97.7"/>
<image xlink:href="../../images/primaryKeys.png" width="11px" height="12px" preserveAspectRatio="xMinYMin meet" x="140.5" y="-114.7"/>
<text text-anchor="start" x="155.5" y="-104.8" font-family="Helvetica,sans-Serif" font-size="11.00" fill="#000000">dvd_id</text>
<polygon fill="none" stroke="#000000" points="135.5,-75.7 135.5,-97.7 252.5,-97.7 252.5,-75.7 135.5,-75.7"/>
<image xlink:href="../../images/foreignKeys.png" width="11px" height="12px" preserveAspectRatio="xMinYMin meet" x="140.5" y="-92.7"/>
<text text-anchor="start" x="155.5" y="-82.8" font-family="Helvetica,sans-Serif" font-size="11.00" fill="#000000">genre_id</text>
<polygon fill="none" stroke="#000000" points="135.5,-56.7 135.5,-75.7 252.5,-75.7 252.5,-56.7 135.5,-56.7"/>
<text text-anchor="start" x="138.5" y="-62.8" font-family="Helvetica,sans-Serif" font-size="11.00" fill="#000000">...</text>
<polygon fill="#ffffff" stroke="transparent" points="135.5,-37.7 135.5,-56.7 174.5,-56.7 174.5,-37.7 135.5,-37.7"/>
<polygon fill="none" stroke="#000000" points="135.5,-37.7 135.5,-56.7 174.5,-56.7 174.5,-37.7 135.5,-37.7"/>
<text text-anchor="start" x="138.5" y="-43.8" font-family="Helvetica,sans-Serif" font-size="11.00" fill="#000000">&lt; 1</text>
<polygon fill="#ffffff" stroke="transparent" points="174.5,-37.7 174.5,-56.7 221.5,-56.7 221.5,-37.7 174.5,-37.7"/>
<polygon fill="none" stroke="#000000" points="174.5,-37.7 174.5,-56.7 221.5,-56.7 221.5,-37.7 174.5,-37.7"/>
<text text-anchor="start" x="186.1105" y="-43.8" font-family="Helvetica,sans-Serif" font-size="11.00" fill="#000000">3 rows</text>
<polygon fill="#ffffff" stroke="transparent" points="221.5,-37.7 221.5,-56.7 252.5,-56.7 252.5,-37.7 221.5,-37.7"/>
<polygon fill="none" stroke="#000000" points="221.5,-37.7 221.5,-56.7 252.5,-56.7 252.5,-37.7 221.5,-37.7"/>
<text text-anchor="start" x="233.9053" y="-43.8" font-family="Helvetica,sans-Serif" font-size="11.00" fill="#000000">1 &gt;</text>
</a>
</g>
</g>
<!-- rentals&#45;&gt;dvds -->
<g id="edge2" class="edge">
<title>rentals:w&#45;&gt;dvds:e</title>
<path fill="none" stroke="#000000" d="M287.7151,-166.7565C271.8751,-151.9048 281.8754,-108.7 252.5,-108.7"/>
<polygon fill="#000000" stroke="#000000" points="293.9696,-168.9994 300.2847,-175.0887 297.7348,-170.3497 301.5,-171.7 301.5,-171.7 301.5,-171.7 297.7348,-170.3497 302.7153,-168.3113 293.9696,-168.9994 293.9696,-168.9994"/>
<ellipse fill="none" stroke="#000000" cx="290.9574" cy="-167.9192" rx="3.2" ry="3.2"/>
</g>
<!-- users -->
<g id="node4" class="node">
<title>users</title>
<g id="a_node4"><a xlink:href="../../tables/users.html" xlink:title="users" target="_top">
<polygon fill="#ffffff" stroke="transparent" points="142.5,-164.2 142.5,-291.2 244.5,-291.2 244.5,-164.2 142.5,-164.2"/>
<polygon fill="#f5f5f5" stroke="transparent" points="142.5,-267.7 142.5,-290.7 244.5,-290.7 244.5,-267.7 142.5,-267.7"/>
<polygon fill="none" stroke="#000000" points="142.5,-267.7 142.5,-290.7 244.5,-290.7 244.5,-267.7 142.5,-267.7"/>
<text text-anchor="start" x="147.5" y="-276.3" font-family="Helvetica,sans-Serif" font-weight="bold" font-size="11.00" fill="#000000">users</text>
<text text-anchor="start" x="209.5437" y="-275.8" font-family="Helvetica,sans-Serif" font-size="11.00" fill="#000000">[table]</text>
<polygon fill="none" stroke="#000000" points="142.5,-245.7 142.5,-267.7 244.5,-267.7 244.5,-245.7 142.5,-245.7"/>
<image xlink:href="../../images/primaryKeys.png" width="11px" height="12px" preserveAspectRatio="xMinYMin meet" x="147.5" y="-262.7"/>
<text text-anchor="start" x="162.5" y="-252.8" font-family="Helvetica,sans-Serif" font-size="11.00" fill="#000000">user_id</text>
<polygon fill="#ffffff" stroke="transparent" points="142.5,-223.7 142.5,-245.7 244.5,-245.7 244.5,-223.7 142.5,-223.7"/>
<polygon fill="none" stroke="#000000" points="142.5,-223.7 142.5,-245.7 244.5,-245.7 244.5,-223.7 142.5,-223.7"/>
<text text-anchor="start" x="162.5" y="-230.8" font-family="Helvetica,sans-Serif" font-size="11.00" fill="#000000">phone</text>
<polygon fill="#ffffff" stroke="transparent" points="142.5,-201.7 142.5,-223.7 244.5,-223.7 244.5,-201.7 142.5,-201.7"/>
<polygon fill="none" stroke="#000000" points="142.5,-201.7 142.5,-223.7 244.5,-223.7 244.5,-201.7 142.5,-201.7"/>
<text text-anchor="start" x="162.5" y="-208.8" font-family="Helvetica,sans-Serif" font-size="11.00" fill="#000000">member_code</text>
<polygon fill="none" stroke="#000000" points="142.5,-182.7 142.5,-201.7 244.5,-201.7 244.5,-182.7 142.5,-182.7"/>
<text text-anchor="start" x="145.5" y="-188.8" font-family="Helvetica,sans-Serif" font-size="11.00" fill="#000000">...</text>
<polygon fill="#ffffff" stroke="transparent" points="142.5,-163.7 142.5,-182.7 169.5,-182.7 169.5,-163.7 142.5,-163.7"/>
<polygon fill="none" stroke="#000000" points="142.5,-163.7 142.5,-182.7 169.5,-182.7 169.5,-163.7 142.5,-163.7"/>
<text text-anchor="start" x="145.5" y="-169.8" font-family="Helvetica,sans-Serif" font-size="11.00" fill="#000000"> &#160;</text>
<polygon fill="#ffffff" stroke="transparent" points="169.5,-163.7 169.5,-182.7 215.5,-182.7 215.5,-163.7 169.5,-163.7"/>
<polygon fill="none" stroke="#000000" points="169.5,-163.7 169.5,-182.7 215.5,-182.7 215.5,-163.7 169.5,-163.7"/>
<text text-anchor="start" x="180.1105" y="-169.8" font-family="Helvetica,sans-Serif" font-size="11.00" fill="#000000">3 rows</text>
<polygon fill="#ffffff" stroke="transparent" points="215.5,-163.7 215.5,-182.7 244.5,-182.7 244.5,-163.7 215.5,-163.7"/>
<polygon fill="none" stroke="#000000" points="215.5,-163.7 215.5,-182.7 244.5,-182.7 244.5,-163.7 215.5,-163.7"/>
<text text-anchor="start" x="225.9053" y="-169.8" font-family="Helvetica,sans-Serif" font-size="11.00" fill="#000000">1 &gt;</text>
</a>
</g>
</g>
<!-- rentals&#45;&gt;users -->
<g id="edge3" class="edge">
<title>rentals:w&#45;&gt;users:e</title>
<path fill="none" stroke="#000000" d="M287.4928,-197.8336C268.1537,-211.8494 276.3596,-256.7 244.5,-256.7"/>
<polygon fill="#000000" stroke="#000000" points="293.8271,-195.9644 302.519,-197.1528 297.6636,-194.8322 301.5,-193.7 301.5,-193.7 301.5,-193.7 297.6636,-194.8322 300.481,-190.2472 293.8271,-195.9644 293.8271,-195.9644"/>
<ellipse fill="none" stroke="#000000" cx="290.758" cy="-196.8701" rx="3.2" ry="3.2"/>
</g>
<!-- genres -->
<g id="node3" class="node">
<title>genres</title>
<g id="a_node3"><a xlink:href="../../tables/genres.html" xlink:title="genres" target="_top">
<polygon fill="#ffffff" stroke="transparent" points="8,-38.2 8,-121.2 86,-121.2 86,-38.2 8,-38.2"/>
<polygon fill="#f5f5f5" stroke="transparent" points="8,-97.7 8,-120.7 86,-120.7 86,-97.7 8,-97.7"/>
<polygon fill="none" stroke="#000000" points="8,-97.7 8,-120.7 86,-120.7 86,-97.7 8,-97.7"/>
<text text-anchor="start" x="13" y="-106.3" font-family="Helvetica,sans-Serif" font-weight="bold" font-size="11.00" fill="#000000">genres</text>
<text text-anchor="start" x="51.5219" y="-105.8" font-family="Helvetica,sans-Serif" font-size="11.00" fill="#000000">[table]</text>
<polygon fill="none" stroke="#000000" points="8,-75.7 8,-97.7 86,-97.7 86,-75.7 8,-75.7"/>
<image xlink:href="../../images/primaryKeys.png" width="11px" height="12px" preserveAspectRatio="xMinYMin meet" x="13" y="-92.7"/>
<text text-anchor="start" x="32" y="-82.8" font-family="Helvetica,sans-Serif" font-size="11.00" fill="#000000">genre_id</text>
<polygon fill="none" stroke="#000000" points="8,-56.7 8,-75.7 86,-75.7 86,-56.7 8,-56.7"/>
<text text-anchor="start" x="11" y="-62.8" font-family="Helvetica,sans-Serif" font-size="11.00" fill="#000000">...</text>
<polygon fill="#ffffff" stroke="transparent" points="8,-37.7 8,-56.7 23,-56.7 23,-37.7 8,-37.7"/>
<polygon fill="none" stroke="#000000" points="8,-37.7 8,-56.7 23,-56.7 23,-37.7 8,-37.7"/>
<text text-anchor="start" x="11" y="-43.8" font-family="Helvetica,sans-Serif" font-size="11.00" fill="#000000"> &#160;</text>
<polygon fill="#ffffff" stroke="transparent" points="23,-37.7 23,-56.7 63,-56.7 63,-37.7 23,-37.7"/>
<polygon fill="none" stroke="#000000" points="23,-37.7 23,-56.7 63,-56.7 63,-37.7 23,-37.7"/>
<text text-anchor="start" x="27.6105" y="-43.8" font-family="Helvetica,sans-Serif" font-size="11.00" fill="#000000">4 rows</text>
<polygon fill="#ffffff" stroke="transparent" points="63,-37.7 63,-56.7 86,-56.7 86,-37.7 63,-37.7"/>
<polygon fill="none" stroke="#000000" points="63,-37.7 63,-56.7 86,-56.7 86,-37.7 63,-37.7"/>
<text text-anchor="start" x="67.4053" y="-43.8" font-family="Helvetica,sans-Serif" font-size="11.00" fill="#000000">1 &gt;</text>
</a>
</g>
</g>
<!-- dvds&#45;&gt;genres -->
<g id="edge1" class="edge">
<title>dvds:w&#45;&gt;genres:e</title>
<path fill="none" stroke="#000000" d="M120.8428,-86.7C109.4139,-86.7 102.1563,-86.7 86,-86.7"/>
<polygon fill="#000000" stroke="#000000" points="127.5,-86.7001 135.5,-90.3 131.5,-86.7 135.5,-86.7 135.5,-86.7 135.5,-86.7 131.5,-86.7 135.5,-83.1 127.5,-86.7001 127.5,-86.7001"/>
<ellipse fill="none" stroke="#000000" cx="124.3" cy="-86.7001" rx="3.2" ry="3.2"/>
</g>
</g>
</svg>
