<?xml version="1.0" encoding="UTF-8" standalone="no"?>
<!DOCTYPE svg PUBLIC "-//W3C//DTD SVG 1.1//EN"
 "http://www.w3.org/Graphics/SVG/1.1/DTD/svg11.dtd">
<!-- Generated by graphviz version 2.40.1 (20161225.0304)
 -->
<!-- Title: oneDegreeRelationshipsDiagram Pages: 1 -->
<svg width="517pt" height="315pt"
 viewBox="0.00 0.00 517.00 314.70" xmlns="http://www.w3.org/2000/svg" xmlns:xlink="http://www.w3.org/1999/xlink">
<g id="graph0" class="graph" transform="scale(1 1) rotate(0) translate(4 310.7)">
<title>oneDegreeRelationshipsDiagram</title>
<polygon fill="#ffffff" stroke="transparent" points="-4,4 -4,-310.7 513,-310.7 513,4 -4,4"/>
<text text-anchor="middle" x="72.4936" y="-7.3" font-family="Helvetica,sans-Serif" font-size="11.00" fill="#000000">Generated by SchemaSpy</text>
<!-- dvds -->
<g id="node1" class="node">
<title>dvds</title>
<g id="a_node1"><a xlink:href="../../tables/dvds.html" xlink:title="dvds" target="_top">
<polygon fill="#ffffff" stroke="transparent" points="135,-38.2 135,-260.2 365,-260.2 365,-38.2 135,-38.2"/>
<polygon fill="#f5f5f5" stroke="transparent" points="137,-235.2 137,-258.2 363,-258.2 363,-235.2 137,-235.2"/>
<polygon fill="none" stroke="#000000" points="137,-235.2 137,-258.2 363,-258.2 363,-235.2 137,-235.2"/>
<text text-anchor="start" x="142" y="-243.8" font-family="Helvetica,sans-Serif" font-weight="bold" font-size="11.00" fill="#000000">dvds</text>
<text text-anchor="start" x="328.0437" y="-243.3" font-family="Helvetica,sans-Serif" font-size="11.00" fill="#000000">[table]</text>
<polygon fill="none" stroke="#000000" points="137,-213.2 137,-235.2 254,-235.2 254,-213.2 137,-213.2"/>
<image xlink:href="../../images/primaryKeys.png" width="11px" height="12px" preserveAspectRatio="xMinYMin meet" x="142" y="-230.2"/>
<text text-anchor="start" x="157" y="-220.3" font-family="Helvetica,sans-Serif" font-size="11.00" fill="#000000">dvd_id</text>
<polygon fill="none" stroke="#000000" points="254,-213.2 254,-235.2 363,-235.2 363,-213.2 254,-213.2"/>
<text text-anchor="start" x="257" y="-220.9" font-family="Helvetica,sans-Serif" font-size="11.00" fill="#000000">integer[2000000000]</text>
<polygon fill="none" stroke="#000000" points="137,-191.2 137,-213.2 254,-213.2 254,-191.2 137,-191.2"/>
<text text-anchor="start" x="157" y="-198.3" font-family="Helvetica,sans-Serif" font-size="11.00" fill="#000000">title</text>
<polygon fill="none" stroke="#000000" points="254,-191.2 254,-213.2 363,-213.2 363,-191.2 254,-191.2"/>
<text text-anchor="start" x="257" y="-198.9" font-family="Helvetica,sans-Serif" font-size="11.00" fill="#000000">text[2000000000]</text>
<polygon fill="none" stroke="#000000" points="137,-169.2 137,-191.2 254,-191.2 254,-169.2 137,-169.2"/>
<image xlink:href="../../images/foreignKeys.png" width="11px" height="12px" preserveAspectRatio="xMinYMin meet" x="142" y="-186.2"/>
<text text-anchor="start" x="157" y="-176.3" font-family="Helvetica,sans-Serif" font-size="11.00" fill="#000000">genre_id</text>
<polygon fill="none" stroke="#000000" points="254,-169.2 254,-191.2 363,-191.2 363,-169.2 254,-169.2"/>
<text text-anchor="start" x="257" y="-176.9" font-family="Helvetica,sans-Serif" font-size="11.00" fill="#000000">integer[2000000000]</text>
<polygon fill="none" stroke="#000000" points="137,-147.2 137,-169.2 254,-169.2 254,-147.2 137,-147.2"/>
<text text-anchor="start" x="157" y="-154.3" font-family="Helvetica,sans-Serif" font-size="11.00" fill="#000000">release_date</text>
<polygon fill="none" stroke="#000000" points="254,-147.2 254,-169.2 363,-169.2 363,-147.2 254,-147.2"/>
<text text-anchor="start" x="256.5245" y="-154.9" font-family="Helvetica,sans-Serif" font-size="11.00" fill="#000000">date[2000000000,10]</text>
<polygon fill="none" stroke="#000000" points="137,-125.2 137,-147.2 254,-147.2 254,-125.2 137,-125.2"/>
<text text-anchor="start" x="157" y="-132.3" font-family="Helvetica,sans-Serif" font-size="11.00" fill="#000000">stock_count</text>
<polygon fill="none" stroke="#000000" points="254,-125.2 254,-147.2 363,-147.2 363,-125.2 254,-125.2"/>
<text text-anchor="start" x="257" y="-132.9" font-family="Helvetica,sans-Serif" font-size="11.00" fill="#000000">integer[2000000000]</text>
<polygon fill="none" stroke="#000000" points="137,-103.2 137,-125.2 254,-125.2 254,-103.2 137,-103.2"/>
<text text-anchor="start" x="157" y="-110.3" font-family="Helvetica,sans-Serif" font-size="11.00" fill="#000000">total_stock</text>
<polygon fill="none" stroke="#000000" points="254,-103.2 254,-125.2 363,-125.2 363,-103.2 254,-103.2"/>
<text text-anchor="start" x="257" y="-110.9" font-family="Helvetica,sans-Serif" font-size="11.00" fill="#000000">integer[2000000000]</text>
<polygon fill="none" stroke="#000000" points="137,-81.2 137,-103.2 254,-103.2 254,-81.2 137,-81.2"/>
<text text-anchor="start" x="157" y="-88.3" font-family="Helvetica,sans-Serif" font-size="11.00" fill="#000000">storage_location</text>
<polygon fill="none" stroke="#000000" points="254,-81.2 254,-103.2 363,-103.2 363,-81.2 254,-81.2"/>
<text text-anchor="start" x="257" y="-88.9" font-family="Helvetica,sans-Serif" font-size="11.00" fill="#000000">text[2000000000]</text>
<polygon fill="none" stroke="#000000" points="137,-59.2 137,-81.2 254,-81.2 254,-59.2 137,-59.2"/>
<text text-anchor="start" x="157" y="-66.3" font-family="Helvetica,sans-Serif" font-size="11.00" fill="#000000">description</text>
<polygon fill="none" stroke="#000000" points="254,-59.2 254,-81.2 363,-81.2 363,-59.2 254,-59.2"/>
<text text-anchor="start" x="257" y="-66.9" font-family="Helvetica,sans-Serif" font-size="11.00" fill="#000000">text[2000000000]</text>
<polygon fill="#ffffff" stroke="transparent" points="137,-40.2 137,-59.2 187,-59.2 187,-40.2 137,-40.2"/>
<polygon fill="none" stroke="#000000" points="137,-40.2 137,-59.2 187,-59.2 187,-40.2 137,-40.2"/>
<text text-anchor="start" x="140" y="-46.3" font-family="Helvetica,sans-Serif" font-size="11.00" fill="#000000">&lt; 1</text>
<polygon fill="#ffffff" stroke="transparent" points="187,-40.2 187,-59.2 254,-59.2 254,-40.2 187,-40.2"/>
<polygon fill="none" stroke="#000000" points="187,-40.2 187,-59.2 254,-59.2 254,-40.2 187,-40.2"/>
<text text-anchor="start" x="218.6105" y="-46.3" font-family="Helvetica,sans-Serif" font-size="11.00" fill="#000000">3 rows</text>
<polygon fill="#ffffff" stroke="transparent" points="254,-40.2 254,-59.2 363,-59.2 363,-40.2 254,-40.2"/>
<polygon fill="none" stroke="#000000" points="254,-40.2 254,-59.2 363,-59.2 363,-40.2 254,-40.2"/>
<text text-anchor="start" x="344.4053" y="-46.3" font-family="Helvetica,sans-Serif" font-size="11.00" fill="#000000">1 &gt;</text>
<polygon fill="none" stroke="#000000" stroke-width="2" points="136,-39.2 136,-259.2 364,-259.2 364,-39.2 136,-39.2"/>
</a>
</g>
</g>
<!-- genres -->
<g id="node2" class="node">
<title>genres</title>
<g id="a_node2"><a xlink:href="../../tables/genres.html" xlink:title="genres" target="_top">
<polygon fill="#ffffff" stroke="transparent" points="8,-131.7 8,-214.7 86,-214.7 86,-131.7 8,-131.7"/>
<polygon fill="#f5f5f5" stroke="transparent" points="8,-191.2 8,-214.2 86,-214.2 86,-191.2 8,-191.2"/>
<polygon fill="none" stroke="#000000" points="8,-191.2 8,-214.2 86,-214.2 86,-191.2 8,-191.2"/>
<text text-anchor="start" x="13" y="-199.8" font-family="Helvetica,sans-Serif" font-weight="bold" font-size="11.00" fill="#000000">genres</text>
<text text-anchor="start" x="51.5219" y="-199.3" font-family="Helvetica,sans-Serif" font-size="11.00" fill="#000000">[table]</text>
<polygon fill="none" stroke="#000000" points="8,-169.2 8,-191.2 86,-191.2 86,-169.2 8,-169.2"/>
<image xlink:href="../../images/primaryKeys.png" width="11px" height="12px" preserveAspectRatio="xMinYMin meet" x="13" y="-186.2"/>
<text text-anchor="start" x="32" y="-176.3" font-family="Helvetica,sans-Serif" font-size="11.00" fill="#000000">genre_id</text>
<polygon fill="none" stroke="#000000" points="8,-150.2 8,-169.2 86,-169.2 86,-150.2 8,-150.2"/>
<text text-anchor="start" x="11" y="-156.3" font-family="Helvetica,sans-Serif" font-size="11.00" fill="#000000">...</text>
<polygon fill="#ffffff" stroke="transparent" points="8,-131.2 8,-150.2 23,-150.2 23,-131.2 8,-131.2"/>
<polygon fill="none" stroke="#000000" points="8,-131.2 8,-150.2 23,-150.2 23,-131.2 8,-131.2"/>
<text text-anchor="start" x="11" y="-137.3" font-family="Helvetica,sans-Serif" font-size="11.00" fill="#000000"> &#160;</text>
<polygon fill="#ffffff" stroke="transparent" points="23,-131.2 23,-150.2 63,-150.2 63,-131.2 23,-131.2"/>
<polygon fill="none" stroke="#000000" points="23,-131.2 23,-150.2 63,-150.2 63,-131.2 23,-131.2"/>
<text text-anchor="start" x="27.6105" y="-137.3" font-family="Helvetica,sans-Serif" font-size="11.00" fill="#000000">4 rows</text>
<polygon fill="#ffffff" stroke="transparent" points="63,-131.2 63,-150.2 86,-150.2 86,-131.2 63,-131.2"/>
<polygon fill="none" stroke="#000000" points="63,-131.2 63,-150.2 86,-150.2 86,-131.2 63,-131.2"/>
<text text-anchor="start" x="67.4053" y="-137.3" font-family="Helvetica,sans-Serif" font-size="11.00" fill="#000000">1 &gt;</text>
</a>
</g>
</g>
<!-- dvds&#45;&gt;genres -->
<g id="edge1" class="edge">
<title>dvds:w&#45;&gt;genres:e</title>
<path fill="none" stroke="#000000" d="M122.276,-180.2C110.2815,-180.2 102.8229,-180.2 86,-180.2"/>
<polygon fill="#000000" stroke="#000000" points="129,-180.2001 137,-183.8 133,-180.2 137,-180.2 137,-180.2 137,-180.2 133,-180.2 137,-176.6 129,-180.2001 129,-180.2001"/>
<ellipse fill="none" stroke="#000000" cx="125.8" cy="-180.2001" rx="3.2" ry="3.2"/>
</g>
<!-- rentals -->
<g id="node3" class="node">
<title>rentals</title>
<g id="a_node3"><a xlink:href="../../tables/rentals.html" xlink:title="rentals" target="_top">
<polygon fill="#ffffff" stroke="transparent" points="414,-175.7 414,-302.7 501,-302.7 501,-175.7 414,-175.7"/>
<polygon fill="#f5f5f5" stroke="transparent" points="414.5,-279.2 414.5,-302.2 501.5,-302.2 501.5,-279.2 414.5,-279.2"/>
<polygon fill="none" stroke="#000000" points="414.5,-279.2 414.5,-302.2 501.5,-302.2 501.5,-279.2 414.5,-279.2"/>
<text text-anchor="start" x="419.5" y="-287.8" font-family="Helvetica,sans-Serif" font-weight="bold" font-size="11.00" fill="#000000">rentals</text>
<text text-anchor="start" x="466.5437" y="-287.3" font-family="Helvetica,sans-Serif" font-size="11.00" fill="#000000">[table]</text>
<polygon fill="none" stroke="#000000" points="414.5,-257.2 414.5,-279.2 501.5,-279.2 501.5,-257.2 414.5,-257.2"/>
<image xlink:href="../../images/primaryKeys.png" width="11px" height="12px" preserveAspectRatio="xMinYMin meet" x="419.5" y="-274.2"/>
<text text-anchor="start" x="434.5" y="-264.3" font-family="Helvetica,sans-Serif" font-size="11.00" fill="#000000">rental_id</text>
<polygon fill="none" stroke="#000000" points="414.5,-235.2 414.5,-257.2 501.5,-257.2 501.5,-235.2 414.5,-235.2"/>
<image xlink:href="../../images/foreignKeys.png" width="11px" height="12px" preserveAspectRatio="xMinYMin meet" x="419.5" y="-252.2"/>
<text text-anchor="start" x="434.5" y="-242.3" font-family="Helvetica,sans-Serif" font-size="11.00" fill="#000000">user_id</text>
<polygon fill="none" stroke="#000000" points="414.5,-213.2 414.5,-235.2 501.5,-235.2 501.5,-213.2 414.5,-213.2"/>
<image xlink:href="../../images/foreignKeys.png" width="11px" height="12px" preserveAspectRatio="xMinYMin meet" x="419.5" y="-230.2"/>
<text text-anchor="start" x="434.5" y="-220.3" font-family="Helvetica,sans-Serif" font-size="11.00" fill="#000000">dvd_id</text>
<polygon fill="none" stroke="#000000" points="414.5,-194.2 414.5,-213.2 501.5,-213.2 501.5,-194.2 414.5,-194.2"/>
<text text-anchor="start" x="417.5" y="-200.3" font-family="Helvetica,sans-Serif" font-size="11.00" fill="#000000">...</text>
<polygon fill="#ffffff" stroke="transparent" points="414.5,-175.2 414.5,-194.2 443.5,-194.2 443.5,-175.2 414.5,-175.2"/>
<polygon fill="none" stroke="#000000" points="414.5,-175.2 414.5,-194.2 443.5,-194.2 443.5,-175.2 414.5,-175.2"/>
<text text-anchor="start" x="417.5" y="-181.3" font-family="Helvetica,sans-Serif" font-size="11.00" fill="#000000">&lt; 2</text>
<polygon fill="#ffffff" stroke="transparent" points="443.5,-175.2 443.5,-194.2 485.5,-194.2 485.5,-175.2 443.5,-175.2"/>
<polygon fill="none" stroke="#000000" points="443.5,-175.2 443.5,-194.2 485.5,-194.2 485.5,-175.2 443.5,-175.2"/>
<text text-anchor="start" x="450.1105" y="-181.3" font-family="Helvetica,sans-Serif" font-size="11.00" fill="#000000">2 rows</text>
<polygon fill="#ffffff" stroke="transparent" points="485.5,-175.2 485.5,-194.2 501.5,-194.2 501.5,-175.2 485.5,-175.2"/>
<polygon fill="none" stroke="#000000" points="485.5,-175.2 485.5,-194.2 501.5,-194.2 501.5,-175.2 485.5,-175.2"/>
<text text-anchor="start" x="492.3862" y="-181.3" font-family="Helvetica,sans-Serif" font-size="11.00" fill="#000000"> &#160;</text>
</a>
</g>
</g>
<!-- rentals&#45;&gt;dvds -->
<g id="edge2" class="edge">
<title>rentals:w&#45;&gt;dvds:e</title>
<path fill="none" stroke="#000000" d="M400.0156,-224.2C387.6771,-224.2 380.1667,-224.2 363,-224.2"/>
<polygon fill="#000000" stroke="#000000" points="406.5,-224.2001 414.5,-227.8 410.5,-224.2 414.5,-224.2 414.5,-224.2 414.5,-224.2 410.5,-224.2 414.5,-220.6 406.5,-224.2001 406.5,-224.2001"/>
<ellipse fill="none" stroke="#000000" cx="403.3" cy="-224.2001" rx="3.2" ry="3.2"/>
</g>
</g>
</svg>
