<?xml version="1.0" encoding="UTF-8" standalone="no"?>
<!DOCTYPE svg PUBLIC "-//W3C//DTD SVG 1.1//EN"
 "http://www.w3.org/Graphics/SVG/1.1/DTD/svg11.dtd">
<!-- Generated by graphviz version 2.40.1 (20161225.0304)
 -->
<!-- Title: twoDegreesRelationshipsDiagram Pages: 1 -->
<svg width="517pt" height="355pt"
 viewBox="0.00 0.00 517.00 354.70" xmlns="http://www.w3.org/2000/svg" xmlns:xlink="http://www.w3.org/1999/xlink">
<g id="graph0" class="graph" transform="scale(1 1) rotate(0) translate(4 350.7)">
<title>twoDegreesRelationshipsDiagram</title>
<polygon fill="#ffffff" stroke="transparent" points="-4,4 -4,-350.7 513,-350.7 513,4 -4,4"/>
<text text-anchor="middle" x="72.4936" y="-7.3" font-family="Helvetica,sans-Serif" font-size="11.00" fill="#000000">Generated by SchemaSpy</text>
<!-- dvds -->
<g id="node1" class="node">
<title>dvds</title>
<g id="a_node1"><a xlink:href="../../tables/dvds.html" xlink:title="dvds" target="_top">
<polygon fill="#ffffff" stroke="transparent" points="135,-38.2 135,-260.2 365,-260.2 365,-38.2 135,-38.2"/>
<polygon fill="#f5f5f5" stroke="transparent" points="137,-235.2 137,-258.2 363,-258.2 363,-235.2 137,-235.2"/>
<polygon fill="none" stroke="#000000" points="137,-235.2 137,-258.2 363,-258.2 363,-235.2 137,-235.2"/>
<text text-anchor="start" x="142" y="-243.8" font-family="Helvetica,sans-Serif" font-weight="bold" font-size="11.00" fill="#000000">dvds</text>
<text text-anchor="start" x="328.0437" y="-243.3" font-family="Helvetica,sans-Serif" font-size="11.00" fill="#000000">[table]</text>
<polygon fill="none" stroke="#000000" points="137,-213.2 137,-235.2 254,-235.2 254,-213.2 137,-213.2"/>
<image xlink:href="../../images/primaryKeys.png" width="11px" height="12px" preserveAspectRatio="xMinYMin meet" x="142" y="-230.2"/>
<text text-anchor="start" x="157" y="-220.3" font-family="Helvetica,sans-Serif" font-size="11.00" fill="#000000">dvd_id</text>
<polygon fill="none" stroke="#000000" points="254,-213.2 254,-235.2 363,-235.2 363,-213.2 254,-213.2"/>
<text text-anchor="start" x="257" y="-220.9" font-family="Helvetica,sans-Serif" font-size="11.00" fill="#000000">integer[2000000000]</text>
<polygon fill="none" stroke="#000000" points="137,-191.2 137,-213.2 254,-213.2 254,-191.2 137,-191.2"/>
<text text-anchor="start" x="157" y="-198.3" font-family="Helvetica,sans-Serif" font-size="11.00" fill="#000000">title</text>
<polygon fill="none" stroke="#000000" points="254,-191.2 254,-213.2 363,-213.2 363,-191.2 254,-191.2"/>
<text text-anchor="start" x="257" y="-198.9" font-family="Helvetica,sans-Serif" font-size="11.00" fill="#000000">text[2000000000]</text>
<polygon fill="none" stroke="#000000" points="137,-169.2 137,-191.2 254,-191.2 254,-169.2 137,-169.2"/>
<image xlink:href="../../images/foreignKeys.png" width="11px" height="12px" preserveAspectRatio="xMinYMin meet" x="142" y="-186.2"/>
<text text-anchor="start" x="157" y="-176.3" font-family="Helvetica,sans-Serif" font-size="11.00" fill="#000000">genre_id</text>
<polygon fill="none" stroke="#000000" points="254,-169.2 254,-191.2 363,-191.2 363,-169.2 254,-169.2"/>
<text text-anchor="start" x="257" y="-176.9" font-family="Helvetica,sans-Serif" font-size="11.00" fill="#000000">integer[2000000000]</text>
<polygon fill="none" stroke="#000000" points="137,-147.2 137,-169.2 254,-169.2 254,-147.2 137,-147.2"/>
<text text-anchor="start" x="157" y="-154.3" font-family="Helvetica,sans-Serif" font-size="11.00" fill="#000000">release_date</text>
<polygon fill="none" stroke="#000000" points="254,-147.2 254,-169.2 363,-169.2 363,-147.2 254,-147.2"/>
<text text-anchor="start" x="256.5245" y="-154.9" font-family="Helvetica,sans-Serif" font-size="11.00" fill="#000000">date[2000000000,10]</text>
<polygon fill="none" stroke="#000000" points="137,-125.2 137,-147.2 254,-147.2 254,-125.2 137,-125.2"/>
<text text-anchor="start" x="157" y="-132.3" font-family="Helvetica,sans-Serif" font-size="11.00" fill="#000000">stock_count</text>
<polygon fill="none" stroke="#000000" points="254,-125.2 254,-147.2 363,-147.2 363,-125.2 254,-125.2"/>
<text text-anchor="start" x="257" y="-132.9" font-family="Helvetica,sans-Serif" font-size="11.00" fill="#000000">integer[2000000000]</text>
<polygon fill="none" stroke="#000000" points="137,-103.2 137,-125.2 254,-125.2 254,-103.2 137,-103.2"/>
<text text-anchor="start" x="157" y="-110.3" font-family="Helvetica,sans-Serif" font-size="11.00" fill="#000000">total_stock</text>
<polygon fill="none" stroke="#000000" points="254,-103.2 254,-125.2 363,-125.2 363,-103.2 254,-103.2"/>
<text text-anchor="start" x="257" y="-110.9" font-family="Helvetica,sans-Serif" font-size="11.00" fill="#000000">integer[2000000000]</text>
<polygon fill="none" stroke="#000000" points="137,-81.2 137,-103.2 254,-103.2 254,-81.2 137,-81.2"/>
<text text-anchor="start" x="157" y="-88.3" font-family="Helvetica,sans-Serif" font-size="11.00" fill="#000000">storage_location</text>
<polygon fill="none" stroke="#000000" points="254,-81.2 254,-103.2 363,-103.2 363,-81.2 254,-81.2"/>
<text text-anchor="start" x="257" y="-88.9" font-family="Helvetica,sans-Serif" font-size="11.00" fill="#000000">text[2000000000]</text>
<polygon fill="none" stroke="#000000" points="137,-59.2 137,-81.2 254,-81.2 254,-59.2 137,-59.2"/>
<text text-anchor="start" x="157" y="-66.3" font-family="Helvetica,sans-Serif" font-size="11.00" fill="#000000">description</text>
<polygon fill="none" stroke="#000000" points="254,-59.2 254,-81.2 363,-81.2 363,-59.2 254,-59.2"/>
<text text-anchor="start" x="257" y="-66.9" font-family="Helvetica,sans-Serif" font-size="11.00" fill="#000000">text[2000000000]</text>
<polygon fill="#ffffff" stroke="transparent" points="137,-40.2 137,-59.2 187,-59.2 187,-40.2 137,-40.2"/>
<polygon fill="none" stroke="#000000" points="137,-40.2 137,-59.2 187,-59.2 187,-40.2 137,-40.2"/>
<text text-anchor="start" x="140" y="-46.3" font-family="Helvetica,sans-Serif" font-size="11.00" fill="#000000">&lt; 1</text>
<polygon fill="#ffffff" stroke="transparent" points="187,-40.2 187,-59.2 254,-59.2 254,-40.2 187,-40.2"/>
<polygon fill="none" stroke="#000000" points="187,-40.2 187,-59.2 254,-59.2 254,-40.2 187,-40.2"/>
<text text-anchor="start" x="218.6105" y="-46.3" font-family="Helvetica,sans-Serif" font-size="11.00" fill="#000000">3 rows</text>
<polygon fill="#ffffff" stroke="transparent" points="254,-40.2 254,-59.2 363,-59.2 363,-40.2 254,-40.2"/>
<polygon fill="none" stroke="#000000" points="254,-40.2 254,-59.2 363,-59.2 363,-40.2 254,-40.2"/>
<text text-anchor="start" x="344.4053" y="-46.3" font-family="Helvetica,sans-Serif" font-size="11.00" fill="#000000">1 &gt;</text>
<polygon fill="none" stroke="#000000" stroke-width="2" points="136,-39.2 136,-259.2 364,-259.2 364,-39.2 136,-39.2"/>
</a>
</g>
</g>
<!-- genres -->
<g id="node2" class="node">
<title>genres</title>
<g id="a_node2"><a xlink:href="../../tables/genres.html" xlink:title="genres" target="_top">
<polygon fill="#ffffff" stroke="transparent" points="8,-131.7 8,-214.7 86,-214.7 86,-131.7 8,-131.7"/>
<polygon fill="#f5f5f5" stroke="transparent" points="8,-191.2 8,-214.2 86,-214.2 86,-191.2 8,-191.2"/>
<polygon fill="none" stroke="#000000" points="8,-191.2 8,-214.2 86,-214.2 86,-191.2 8,-191.2"/>
<text text-anchor="start" x="13" y="-199.8" font-family="Helvetica,sans-Serif" font-weight="bold" font-size="11.00" fill="#000000">genres</text>
<text text-anchor="start" x="51.5219" y="-199.3" font-family="Helvetica,sans-Serif" font-size="11.00" fill="#000000">[table]</text>
<polygon fill="none" stroke="#000000" points="8,-169.2 8,-191.2 86,-191.2 86,-169.2 8,-169.2"/>
<image xlink:href="../../images/primaryKeys.png" width="11px" height="12px" preserveAspectRatio="xMinYMin meet" x="13" y="-186.2"/>
<text text-anchor="start" x="32" y="-176.3" font-family="Helvetica,sans-Serif" font-size="11.00" fill="#000000">genre_id</text>
<polygon fill="none" stroke="#000000" points="8,-150.2 8,-169.2 86,-169.2 86,-150.2 8,-150.2"/>
<text text-anchor="start" x="11" y="-156.3" font-family="Helvetica,sans-Serif" font-size="11.00" fill="#000000">...</text>
<polygon fill="#ffffff" stroke="transparent" points="8,-131.2 8,-150.2 23,-150.2 23,-131.2 8,-131.2"/>
<polygon fill="none" stroke="#000000" points="8,-131.2 8,-150.2 23,-150.2 23,-131.2 8,-131.2"/>
<text text-anchor="start" x="11" y="-137.3" font-family="Helvetica,sans-Serif" font-size="11.00" fill="#000000"> &#160;</text>
<polygon fill="#ffffff" stroke="transparent" points="23,-131.2 23,-150.2 63,-150.2 63,-131.2 23,-131.2"/>
<polygon fill="none" stroke="#000000" points="23,-131.2 23,-150.2 63,-150.2 63,-131.2 23,-131.2"/>
<text text-anchor="start" x="27.6105" y="-137.3" font-family="Helvetica,sans-Serif" font-size="11.00" fill="#000000">4 rows</text>
<polygon fill="#ffffff" stroke="transparent" points="63,-131.2 63,-150.2 86,-150.2 86,-131.2 63,-131.2"/>
<polygon fill="none" stroke="#000000" points="63,-131.2 63,-150.2 86,-150.2 86,-131.2 63,-131.2"/>
<text text-anchor="start" x="67.4053" y="-137.3" font-family="Helvetica,sans-Serif" font-size="11.00" fill="#000000">1 &gt;</text>
</a>
</g>
</g>
<!-- dvds&#45;&gt;genres -->
<g id="edge1" class="edge">
<title>dvds:w&#45;&gt;genres:e</title>
<path fill="none" stroke="#000000" d="M122.276,-180.2C110.2815,-180.2 102.8229,-180.2 86,-180.2"/>
<polygon fill="#000000" stroke="#000000" points="129,-180.2001 137,-183.8 133,-180.2 137,-180.2 137,-180.2 137,-180.2 133,-180.2 137,-176.6 129,-180.2001 129,-180.2001"/>
<ellipse fill="none" stroke="#000000" cx="125.8" cy="-180.2001" rx="3.2" ry="3.2"/>
</g>
<!-- rentals -->
<g id="node3" class="node">
<title>rentals</title>
<g id="a_node3"><a xlink:href="../../tables/rentals.html" xlink:title="rentals" target="_top">
<polygon fill="#ffffff" stroke="transparent" points="414,-206.7 414,-333.7 501,-333.7 501,-206.7 414,-206.7"/>
<polygon fill="#f5f5f5" stroke="transparent" points="414.5,-310.2 414.5,-333.2 501.5,-333.2 501.5,-310.2 414.5,-310.2"/>
<polygon fill="none" stroke="#000000" points="414.5,-310.2 414.5,-333.2 501.5,-333.2 501.5,-310.2 414.5,-310.2"/>
<text text-anchor="start" x="419.5" y="-318.8" font-family="Helvetica,sans-Serif" font-weight="bold" font-size="11.00" fill="#000000">rentals</text>
<text text-anchor="start" x="466.5437" y="-318.3" font-family="Helvetica,sans-Serif" font-size="11.00" fill="#000000">[table]</text>
<polygon fill="none" stroke="#000000" points="414.5,-288.2 414.5,-310.2 501.5,-310.2 501.5,-288.2 414.5,-288.2"/>
<image xlink:href="../../images/primaryKeys.png" width="11px" height="12px" preserveAspectRatio="xMinYMin meet" x="419.5" y="-305.2"/>
<text text-anchor="start" x="434.5" y="-295.3" font-family="Helvetica,sans-Serif" font-size="11.00" fill="#000000">rental_id</text>
<polygon fill="none" stroke="#000000" points="414.5,-266.2 414.5,-288.2 501.5,-288.2 501.5,-266.2 414.5,-266.2"/>
<image xlink:href="../../images/foreignKeys.png" width="11px" height="12px" preserveAspectRatio="xMinYMin meet" x="419.5" y="-283.2"/>
<text text-anchor="start" x="434.5" y="-273.3" font-family="Helvetica,sans-Serif" font-size="11.00" fill="#000000">user_id</text>
<polygon fill="none" stroke="#000000" points="414.5,-244.2 414.5,-266.2 501.5,-266.2 501.5,-244.2 414.5,-244.2"/>
<image xlink:href="../../images/foreignKeys.png" width="11px" height="12px" preserveAspectRatio="xMinYMin meet" x="419.5" y="-261.2"/>
<text text-anchor="start" x="434.5" y="-251.3" font-family="Helvetica,sans-Serif" font-size="11.00" fill="#000000">dvd_id</text>
<polygon fill="none" stroke="#000000" points="414.5,-225.2 414.5,-244.2 501.5,-244.2 501.5,-225.2 414.5,-225.2"/>
<text text-anchor="start" x="417.5" y="-231.3" font-family="Helvetica,sans-Serif" font-size="11.00" fill="#000000">...</text>
<polygon fill="#ffffff" stroke="transparent" points="414.5,-206.2 414.5,-225.2 443.5,-225.2 443.5,-206.2 414.5,-206.2"/>
<polygon fill="none" stroke="#000000" points="414.5,-206.2 414.5,-225.2 443.5,-225.2 443.5,-206.2 414.5,-206.2"/>
<text text-anchor="start" x="417.5" y="-212.3" font-family="Helvetica,sans-Serif" font-size="11.00" fill="#000000">&lt; 2</text>
<polygon fill="#ffffff" stroke="transparent" points="443.5,-206.2 443.5,-225.2 485.5,-225.2 485.5,-206.2 443.5,-206.2"/>
<polygon fill="none" stroke="#000000" points="443.5,-206.2 443.5,-225.2 485.5,-225.2 485.5,-206.2 443.5,-206.2"/>
<text text-anchor="start" x="450.1105" y="-212.3" font-family="Helvetica,sans-Serif" font-size="11.00" fill="#000000">2 rows</text>
<polygon fill="#ffffff" stroke="transparent" points="485.5,-206.2 485.5,-225.2 501.5,-225.2 501.5,-206.2 485.5,-206.2"/>
<polygon fill="none" stroke="#000000" points="485.5,-206.2 485.5,-225.2 501.5,-225.2 501.5,-206.2 485.5,-206.2"/>
<text text-anchor="start" x="492.3862" y="-212.3" font-family="Helvetica,sans-Serif" font-size="11.00" fill="#000000"> &#160;</text>
</a>
</g>
</g>
<!-- rentals&#45;&gt;dvds -->
<g id="edge2" class="edge">
<title>rentals:w&#45;&gt;dvds:e</title>
<path fill="none" stroke="#000000" d="M400.4805,-251.3988C387.2585,-243.1209 383.8716,-224.2 363,-224.2"/>
<polygon fill="#000000" stroke="#000000" points="406.7788,-253.1064 413.5579,-258.6745 410.6394,-254.1532 414.5,-255.2 414.5,-255.2 414.5,-255.2 410.6394,-254.1532 415.4421,-251.7255 406.7788,-253.1064 406.7788,-253.1064"/>
<ellipse fill="none" stroke="#000000" cx="403.6903" cy="-252.269" rx="3.2" ry="3.2"/>
</g>
<!-- users -->
<g id="node4" class="node">
<title>users</title>
<g id="a_node4"><a xlink:href="../../tables/users.html" xlink:title="users" target="_top">
<polygon fill="#ffffff" stroke="transparent" points="214.5,-281.7 214.5,-342.7 285.5,-342.7 285.5,-281.7 214.5,-281.7"/>
<polygon fill="#f5f5f5" stroke="transparent" points="215,-319.2 215,-342.2 286,-342.2 286,-319.2 215,-319.2"/>
<polygon fill="none" stroke="#000000" points="215,-319.2 215,-342.2 286,-342.2 286,-319.2 215,-319.2"/>
<text text-anchor="start" x="220" y="-327.8" font-family="Helvetica,sans-Serif" font-weight="bold" font-size="11.00" fill="#000000">users</text>
<text text-anchor="start" x="251.5219" y="-327.3" font-family="Helvetica,sans-Serif" font-size="11.00" fill="#000000">[table]</text>
<polygon fill="none" stroke="#000000" points="215,-300.2 215,-319.2 286,-319.2 286,-300.2 215,-300.2"/>
<text text-anchor="start" x="218" y="-306.3" font-family="Helvetica,sans-Serif" font-size="11.00" fill="#000000">...</text>
<polygon fill="#ffffff" stroke="transparent" points="215,-281.2 215,-300.2 227,-300.2 227,-281.2 215,-281.2"/>
<polygon fill="none" stroke="#000000" points="215,-281.2 215,-300.2 227,-300.2 227,-281.2 215,-281.2"/>
<text text-anchor="start" x="217.9431" y="-287.3" font-family="Helvetica,sans-Serif" font-size="11.00" fill="#000000"> &#160;</text>
<polygon fill="#ffffff" stroke="transparent" points="227,-281.2 227,-300.2 265,-300.2 265,-281.2 227,-281.2"/>
<polygon fill="none" stroke="#000000" points="227,-281.2 227,-300.2 265,-300.2 265,-281.2 227,-281.2"/>
<text text-anchor="start" x="229.8053" y="-287.3" font-family="Helvetica,sans-Serif" font-size="11.00" fill="#000000">3 rows</text>
<polygon fill="#ffffff" stroke="transparent" points="265,-281.2 265,-300.2 286,-300.2 286,-281.2 265,-281.2"/>
<polygon fill="none" stroke="#000000" points="265,-281.2 265,-300.2 286,-300.2 286,-281.2 265,-281.2"/>
<text text-anchor="start" x="267.7027" y="-287.3" font-family="Helvetica,sans-Serif" font-size="11.00" fill="#000000">1 &gt;</text>
</a>
</g>
</g>
<!-- rentals&#45;&gt;users -->
<g id="edge3" class="edge">
<title>rentals:w&#45;&gt;users:e</title>
<path fill="none" stroke="#000000" d="M400.0301,-277.8981C353.3768,-282.5778 339.6825,-309.2 286,-309.2"/>
<polygon fill="#000000" stroke="#000000" points="406.5093,-277.5856 414.6735,-280.7958 410.5046,-277.3928 414.5,-277.2 414.5,-277.2 414.5,-277.2 410.5046,-277.3928 414.3265,-273.6042 406.5093,-277.5856 406.5093,-277.5856"/>
<ellipse fill="none" stroke="#000000" cx="403.313" cy="-277.7398" rx="3.2" ry="3.2"/>
</g>
</g>
</svg>
