<?xml version="1.0" encoding="UTF-8" standalone="no"?>
<!DOCTYPE svg PUBLIC "-//W3C//DTD SVG 1.1//EN"
 "http://www.w3.org/Graphics/SVG/1.1/DTD/svg11.dtd">
<!-- Generated by graphviz version 2.40.1 (20161225.0304)
 -->
<!-- Title: twoDegreesRelationshipsDiagram Pages: 1 -->
<svg width="538pt" height="303pt"
 viewBox="0.00 0.00 538.00 303.20" xmlns="http://www.w3.org/2000/svg" xmlns:xlink="http://www.w3.org/1999/xlink">
<g id="graph0" class="graph" transform="scale(1 1) rotate(0) translate(4 299.2)">
<title>twoDegreesRelationshipsDiagram</title>
<polygon fill="#ffffff" stroke="transparent" points="-4,4 -4,-299.2 534,-299.2 534,4 -4,4"/>
<text text-anchor="middle" x="72.4936" y="-7.3" font-family="Helvetica,sans-Serif" font-size="11.00" fill="#000000">Generated by SchemaSpy</text>
<!-- dvds -->
<g id="node1" class="node">
<title>dvds</title>
<g id="a_node1"><a xlink:href="../../tables/dvds.html" xlink:title="dvds" target="_top">
<polygon fill="#ffffff" stroke="transparent" points="135,-38.2 135,-143.2 252,-143.2 252,-38.2 135,-38.2"/>
<polygon fill="#f5f5f5" stroke="transparent" points="135.5,-119.7 135.5,-142.7 252.5,-142.7 252.5,-119.7 135.5,-119.7"/>
<polygon fill="none" stroke="#000000" points="135.5,-119.7 135.5,-142.7 252.5,-142.7 252.5,-119.7 135.5,-119.7"/>
<text text-anchor="start" x="140.5" y="-128.3" font-family="Helvetica,sans-Serif" font-weight="bold" font-size="11.00" fill="#000000">dvds</text>
<text text-anchor="start" x="217.5437" y="-127.8" font-family="Helvetica,sans-Serif" font-size="11.00" fill="#000000">[table]</text>
<polygon fill="none" stroke="#000000" points="135.5,-97.7 135.5,-119.7 252.5,-119.7 252.5,-97.7 135.5,-97.7"/>
<image xlink:href="../../images/primaryKeys.png" width="11px" height="12px" preserveAspectRatio="xMinYMin meet" x="140.5" y="-114.7"/>
<text text-anchor="start" x="155.5" y="-104.8" font-family="Helvetica,sans-Serif" font-size="11.00" fill="#000000">dvd_id</text>
<polygon fill="none" stroke="#000000" points="135.5,-75.7 135.5,-97.7 252.5,-97.7 252.5,-75.7 135.5,-75.7"/>
<image xlink:href="../../images/foreignKeys.png" width="11px" height="12px" preserveAspectRatio="xMinYMin meet" x="140.5" y="-92.7"/>
<text text-anchor="start" x="155.5" y="-82.8" font-family="Helvetica,sans-Serif" font-size="11.00" fill="#000000">genre_id</text>
<polygon fill="none" stroke="#000000" points="135.5,-56.7 135.5,-75.7 252.5,-75.7 252.5,-56.7 135.5,-56.7"/>
<text text-anchor="start" x="138.5" y="-62.8" font-family="Helvetica,sans-Serif" font-size="11.00" fill="#000000">...</text>
<polygon fill="#ffffff" stroke="transparent" points="135.5,-37.7 135.5,-56.7 174.5,-56.7 174.5,-37.7 135.5,-37.7"/>
<polygon fill="none" stroke="#000000" points="135.5,-37.7 135.5,-56.7 174.5,-56.7 174.5,-37.7 135.5,-37.7"/>
<text text-anchor="start" x="138.5" y="-43.8" font-family="Helvetica,sans-Serif" font-size="11.00" fill="#000000">&lt; 1</text>
<polygon fill="#ffffff" stroke="transparent" points="174.5,-37.7 174.5,-56.7 221.5,-56.7 221.5,-37.7 174.5,-37.7"/>
<polygon fill="none" stroke="#000000" points="174.5,-37.7 174.5,-56.7 221.5,-56.7 221.5,-37.7 174.5,-37.7"/>
<text text-anchor="start" x="186.1105" y="-43.8" font-family="Helvetica,sans-Serif" font-size="11.00" fill="#000000">3 rows</text>
<polygon fill="#ffffff" stroke="transparent" points="221.5,-37.7 221.5,-56.7 252.5,-56.7 252.5,-37.7 221.5,-37.7"/>
<polygon fill="none" stroke="#000000" points="221.5,-37.7 221.5,-56.7 252.5,-56.7 252.5,-37.7 221.5,-37.7"/>
<text text-anchor="start" x="233.9053" y="-43.8" font-family="Helvetica,sans-Serif" font-size="11.00" fill="#000000">1 &gt;</text>
</a>
</g>
</g>
<!-- genres -->
<g id="node2" class="node">
<title>genres</title>
<g id="a_node2"><a xlink:href="../../tables/genres.html" xlink:title="genres" target="_top">
<polygon fill="#ffffff" stroke="transparent" points="8,-59.2 8,-120.2 86,-120.2 86,-59.2 8,-59.2"/>
<polygon fill="#f5f5f5" stroke="transparent" points="8,-96.7 8,-119.7 86,-119.7 86,-96.7 8,-96.7"/>
<polygon fill="none" stroke="#000000" points="8,-96.7 8,-119.7 86,-119.7 86,-96.7 8,-96.7"/>
<text text-anchor="start" x="13" y="-105.3" font-family="Helvetica,sans-Serif" font-weight="bold" font-size="11.00" fill="#000000">genres</text>
<text text-anchor="start" x="51.5219" y="-104.8" font-family="Helvetica,sans-Serif" font-size="11.00" fill="#000000">[table]</text>
<polygon fill="none" stroke="#000000" points="8,-77.7 8,-96.7 86,-96.7 86,-77.7 8,-77.7"/>
<text text-anchor="start" x="11" y="-83.8" font-family="Helvetica,sans-Serif" font-size="11.00" fill="#000000">...</text>
<polygon fill="#ffffff" stroke="transparent" points="8,-58.7 8,-77.7 23,-77.7 23,-58.7 8,-58.7"/>
<polygon fill="none" stroke="#000000" points="8,-58.7 8,-77.7 23,-77.7 23,-58.7 8,-58.7"/>
<text text-anchor="start" x="11" y="-64.8" font-family="Helvetica,sans-Serif" font-size="11.00" fill="#000000"> &#160;</text>
<polygon fill="#ffffff" stroke="transparent" points="23,-58.7 23,-77.7 63,-77.7 63,-58.7 23,-58.7"/>
<polygon fill="none" stroke="#000000" points="23,-58.7 23,-77.7 63,-77.7 63,-58.7 23,-58.7"/>
<text text-anchor="start" x="27.6105" y="-64.8" font-family="Helvetica,sans-Serif" font-size="11.00" fill="#000000">4 rows</text>
<polygon fill="#ffffff" stroke="transparent" points="63,-58.7 63,-77.7 86,-77.7 86,-58.7 63,-58.7"/>
<polygon fill="none" stroke="#000000" points="63,-58.7 63,-77.7 86,-77.7 86,-58.7 63,-58.7"/>
<text text-anchor="start" x="67.4053" y="-64.8" font-family="Helvetica,sans-Serif" font-size="11.00" fill="#000000">1 &gt;</text>
</a>
</g>
</g>
<!-- dvds&#45;&gt;genres -->
<g id="edge1" class="edge">
<title>dvds:w&#45;&gt;genres:e</title>
<path fill="none" stroke="#000000" d="M120.8428,-86.7C109.4139,-86.7 102.1563,-86.7 86,-86.7"/>
<polygon fill="#000000" stroke="#000000" points="127.5,-86.7001 135.5,-90.3 131.5,-86.7 135.5,-86.7 135.5,-86.7 135.5,-86.7 131.5,-86.7 135.5,-83.1 127.5,-86.7001 127.5,-86.7001"/>
<ellipse fill="none" stroke="#000000" cx="124.3" cy="-86.7001" rx="3.2" ry="3.2"/>
</g>
<!-- rentals -->
<g id="node3" class="node">
<title>rentals</title>
<g id="a_node3"><a xlink:href="../../tables/rentals.html" xlink:title="rentals" target="_top">
<polygon fill="#ffffff" stroke="transparent" points="301,-73.7 301,-251.7 522,-251.7 522,-73.7 301,-73.7"/>
<polygon fill="#f5f5f5" stroke="transparent" points="303.5,-226.7 303.5,-249.7 520.5,-249.7 520.5,-226.7 303.5,-226.7"/>
<polygon fill="none" stroke="#000000" points="303.5,-226.7 303.5,-249.7 520.5,-249.7 520.5,-226.7 303.5,-226.7"/>
<text text-anchor="start" x="308.5" y="-235.3" font-family="Helvetica,sans-Serif" font-weight="bold" font-size="11.00" fill="#000000">rentals</text>
<text text-anchor="start" x="485.5437" y="-234.8" font-family="Helvetica,sans-Serif" font-size="11.00" fill="#000000">[table]</text>
<polygon fill="none" stroke="#000000" points="303.5,-204.7 303.5,-226.7 390.5,-226.7 390.5,-204.7 303.5,-204.7"/>
<image xlink:href="../../images/primaryKeys.png" width="11px" height="12px" preserveAspectRatio="xMinYMin meet" x="308.5" y="-221.7"/>
<text text-anchor="start" x="323.5" y="-211.8" font-family="Helvetica,sans-Serif" font-size="11.00" fill="#000000">rental_id</text>
<polygon fill="none" stroke="#000000" points="390.5,-204.7 390.5,-226.7 520.5,-226.7 520.5,-204.7 390.5,-204.7"/>
<text text-anchor="start" x="393.5" y="-212.4" font-family="Helvetica,sans-Serif" font-size="11.00" fill="#000000">integer[2000000000]</text>
<polygon fill="none" stroke="#000000" points="303.5,-182.7 303.5,-204.7 390.5,-204.7 390.5,-182.7 303.5,-182.7"/>
<image xlink:href="../../images/foreignKeys.png" width="11px" height="12px" preserveAspectRatio="xMinYMin meet" x="308.5" y="-199.7"/>
<text text-anchor="start" x="323.5" y="-189.8" font-family="Helvetica,sans-Serif" font-size="11.00" fill="#000000">user_id</text>
<polygon fill="none" stroke="#000000" points="390.5,-182.7 390.5,-204.7 520.5,-204.7 520.5,-182.7 390.5,-182.7"/>
<text text-anchor="start" x="393.5" y="-190.4" font-family="Helvetica,sans-Serif" font-size="11.00" fill="#000000">integer[2000000000]</text>
<polygon fill="none" stroke="#000000" points="303.5,-160.7 303.5,-182.7 390.5,-182.7 390.5,-160.7 303.5,-160.7"/>
<image xlink:href="../../images/foreignKeys.png" width="11px" height="12px" preserveAspectRatio="xMinYMin meet" x="308.5" y="-177.7"/>
<text text-anchor="start" x="323.5" y="-167.8" font-family="Helvetica,sans-Serif" font-size="11.00" fill="#000000">dvd_id</text>
<polygon fill="none" stroke="#000000" points="390.5,-160.7 390.5,-182.7 520.5,-182.7 520.5,-160.7 390.5,-160.7"/>
<text text-anchor="start" x="393.5" y="-168.4" font-family="Helvetica,sans-Serif" font-size="11.00" fill="#000000">integer[2000000000]</text>
<polygon fill="none" stroke="#000000" points="303.5,-138.7 303.5,-160.7 390.5,-160.7 390.5,-138.7 303.5,-138.7"/>
<text text-anchor="start" x="323.5" y="-145.8" font-family="Helvetica,sans-Serif" font-size="11.00" fill="#000000">rental_date</text>
<polygon fill="none" stroke="#000000" points="390.5,-138.7 390.5,-160.7 520.5,-160.7 520.5,-138.7 390.5,-138.7"/>
<text text-anchor="start" x="393.1372" y="-146.4" font-family="Helvetica,sans-Serif" font-size="11.00" fill="#000000">datetime[2000000000,10]</text>
<polygon fill="none" stroke="#000000" points="303.5,-116.7 303.5,-138.7 390.5,-138.7 390.5,-116.7 303.5,-116.7"/>
<text text-anchor="start" x="323.5" y="-123.8" font-family="Helvetica,sans-Serif" font-size="11.00" fill="#000000">return_date</text>
<polygon fill="none" stroke="#000000" points="390.5,-116.7 390.5,-138.7 520.5,-138.7 520.5,-116.7 390.5,-116.7"/>
<text text-anchor="start" x="393.1372" y="-124.4" font-family="Helvetica,sans-Serif" font-size="11.00" fill="#000000">datetime[2000000000,10]</text>
<polygon fill="none" stroke="#000000" points="303.5,-94.7 303.5,-116.7 390.5,-116.7 390.5,-94.7 303.5,-94.7"/>
<text text-anchor="start" x="323.5" y="-101.8" font-family="Helvetica,sans-Serif" font-size="11.00" fill="#000000">status</text>
<polygon fill="none" stroke="#000000" points="390.5,-94.7 390.5,-116.7 520.5,-116.7 520.5,-94.7 390.5,-94.7"/>
<text text-anchor="start" x="393.5" y="-102.4" font-family="Helvetica,sans-Serif" font-size="11.00" fill="#000000">text[2000000000]</text>
<polygon fill="#ffffff" stroke="transparent" points="303.5,-75.7 303.5,-94.7 338.5,-94.7 338.5,-75.7 303.5,-75.7"/>
<polygon fill="none" stroke="#000000" points="303.5,-75.7 303.5,-94.7 338.5,-94.7 338.5,-75.7 303.5,-75.7"/>
<text text-anchor="start" x="306.5" y="-81.8" font-family="Helvetica,sans-Serif" font-size="11.00" fill="#000000">&lt; 2</text>
<polygon fill="#ffffff" stroke="transparent" points="338.5,-75.7 338.5,-94.7 390.5,-94.7 390.5,-75.7 338.5,-75.7"/>
<polygon fill="none" stroke="#000000" points="338.5,-75.7 338.5,-94.7 390.5,-94.7 390.5,-75.7 338.5,-75.7"/>
<text text-anchor="start" x="355.1105" y="-81.8" font-family="Helvetica,sans-Serif" font-size="11.00" fill="#000000">2 rows</text>
<polygon fill="#ffffff" stroke="transparent" points="390.5,-75.7 390.5,-94.7 520.5,-94.7 520.5,-75.7 390.5,-75.7"/>
<polygon fill="none" stroke="#000000" points="390.5,-75.7 390.5,-94.7 520.5,-94.7 520.5,-75.7 390.5,-75.7"/>
<text text-anchor="start" x="501.9053" y="-81.8" font-family="Helvetica,sans-Serif" font-size="11.00" fill="#000000">0 &gt;</text>
<polygon fill="none" stroke="#000000" stroke-width="2" points="302,-74.7 302,-250.7 521,-250.7 521,-74.7 302,-74.7"/>
</a>
</g>
</g>
<!-- rentals&#45;&gt;dvds -->
<g id="edge2" class="edge">
<title>rentals:w&#45;&gt;dvds:e</title>
<path fill="none" stroke="#000000" d="M289.4033,-166.7565C273.025,-151.9048 282.3329,-108.7 252.5,-108.7"/>
<polygon fill="#000000" stroke="#000000" points="295.9507,-169.0526 302.3087,-175.0972 299.7254,-170.3763 303.5,-171.7 303.5,-171.7 303.5,-171.7 299.7254,-170.3763 304.6913,-168.3028 295.9507,-169.0526 295.9507,-169.0526"/>
<ellipse fill="none" stroke="#000000" cx="292.931" cy="-167.9936" rx="3.2" ry="3.2"/>
</g>
<!-- users -->
<g id="node4" class="node">
<title>users</title>
<g id="a_node4"><a xlink:href="../../tables/users.html" xlink:title="users" target="_top">
<polygon fill="#ffffff" stroke="transparent" points="142.5,-164.2 142.5,-291.2 244.5,-291.2 244.5,-164.2 142.5,-164.2"/>
<polygon fill="#f5f5f5" stroke="transparent" points="142.5,-267.7 142.5,-290.7 244.5,-290.7 244.5,-267.7 142.5,-267.7"/>
<polygon fill="none" stroke="#000000" points="142.5,-267.7 142.5,-290.7 244.5,-290.7 244.5,-267.7 142.5,-267.7"/>
<text text-anchor="start" x="147.5" y="-276.3" font-family="Helvetica,sans-Serif" font-weight="bold" font-size="11.00" fill="#000000">users</text>
<text text-anchor="start" x="209.5437" y="-275.8" font-family="Helvetica,sans-Serif" font-size="11.00" fill="#000000">[table]</text>
<polygon fill="none" stroke="#000000" points="142.5,-245.7 142.5,-267.7 244.5,-267.7 244.5,-245.7 142.5,-245.7"/>
<image xlink:href="../../images/primaryKeys.png" width="11px" height="12px" preserveAspectRatio="xMinYMin meet" x="147.5" y="-262.7"/>
<text text-anchor="start" x="162.5" y="-252.8" font-family="Helvetica,sans-Serif" font-size="11.00" fill="#000000">user_id</text>
<polygon fill="#ffffff" stroke="transparent" points="142.5,-223.7 142.5,-245.7 244.5,-245.7 244.5,-223.7 142.5,-223.7"/>
<polygon fill="none" stroke="#000000" points="142.5,-223.7 142.5,-245.7 244.5,-245.7 244.5,-223.7 142.5,-223.7"/>
<text text-anchor="start" x="162.5" y="-230.8" font-family="Helvetica,sans-Serif" font-size="11.00" fill="#000000">phone</text>
<polygon fill="#ffffff" stroke="transparent" points="142.5,-201.7 142.5,-223.7 244.5,-223.7 244.5,-201.7 142.5,-201.7"/>
<polygon fill="none" stroke="#000000" points="142.5,-201.7 142.5,-223.7 244.5,-223.7 244.5,-201.7 142.5,-201.7"/>
<text text-anchor="start" x="162.5" y="-208.8" font-family="Helvetica,sans-Serif" font-size="11.00" fill="#000000">member_code</text>
<polygon fill="none" stroke="#000000" points="142.5,-182.7 142.5,-201.7 244.5,-201.7 244.5,-182.7 142.5,-182.7"/>
<text text-anchor="start" x="145.5" y="-188.8" font-family="Helvetica,sans-Serif" font-size="11.00" fill="#000000">...</text>
<polygon fill="#ffffff" stroke="transparent" points="142.5,-163.7 142.5,-182.7 169.5,-182.7 169.5,-163.7 142.5,-163.7"/>
<polygon fill="none" stroke="#000000" points="142.5,-163.7 142.5,-182.7 169.5,-182.7 169.5,-163.7 142.5,-163.7"/>
<text text-anchor="start" x="145.5" y="-169.8" font-family="Helvetica,sans-Serif" font-size="11.00" fill="#000000"> &#160;</text>
<polygon fill="#ffffff" stroke="transparent" points="169.5,-163.7 169.5,-182.7 215.5,-182.7 215.5,-163.7 169.5,-163.7"/>
<polygon fill="none" stroke="#000000" points="169.5,-163.7 169.5,-182.7 215.5,-182.7 215.5,-163.7 169.5,-163.7"/>
<text text-anchor="start" x="180.1105" y="-169.8" font-family="Helvetica,sans-Serif" font-size="11.00" fill="#000000">3 rows</text>
<polygon fill="#ffffff" stroke="transparent" points="215.5,-163.7 215.5,-182.7 244.5,-182.7 244.5,-163.7 215.5,-163.7"/>
<polygon fill="none" stroke="#000000" points="215.5,-163.7 215.5,-182.7 244.5,-182.7 244.5,-163.7 215.5,-163.7"/>
<text text-anchor="start" x="225.9053" y="-169.8" font-family="Helvetica,sans-Serif" font-size="11.00" fill="#000000">1 &gt;</text>
</a>
</g>
</g>
<!-- rentals&#45;&gt;users -->
<g id="edge3" class="edge">
<title>rentals:w&#45;&gt;users:e</title>
<path fill="none" stroke="#000000" d="M289.4759,-197.6409C269.2368,-211.4332 277.0174,-256.7 244.5,-256.7"/>
<polygon fill="#000000" stroke="#000000" points="295.7983,-195.8643 304.4739,-197.1658 299.6492,-194.7822 303.5,-193.7 303.5,-193.7 303.5,-193.7 299.6492,-194.7822 302.5261,-190.2342 295.7983,-195.8643 295.7983,-195.8643"/>
<ellipse fill="none" stroke="#000000" cx="292.7176" cy="-196.73" rx="3.2" ry="3.2"/>
</g>
</g>
</svg>
