<?xml version="1.0" encoding="UTF-8" standalone="no"?>
<!DOCTYPE svg PUBLIC "-//W3C//DTD SVG 1.1//EN"
 "http://www.w3.org/Graphics/SVG/1.1/DTD/svg11.dtd">
<!-- Generated by graphviz version 2.40.1 (20161225.0304)
 -->
<!-- Title: oneDegreeRelationshipsDiagram Pages: 1 -->
<svg width="411pt" height="303pt"
 viewBox="0.00 0.00 411.00 303.20" xmlns="http://www.w3.org/2000/svg" xmlns:xlink="http://www.w3.org/1999/xlink">
<g id="graph0" class="graph" transform="scale(1 1) rotate(0) translate(4 299.2)">
<title>oneDegreeRelationshipsDiagram</title>
<polygon fill="#ffffff" stroke="transparent" points="-4,4 -4,-299.2 407,-299.2 407,4 -4,4"/>
<text text-anchor="middle" x="72.4936" y="-7.3" font-family="Helvetica,sans-Serif" font-size="11.00" fill="#000000">Generated by SchemaSpy</text>
<!-- rentals -->
<g id="node1" class="node">
<title>rentals</title>
<g id="a_node1"><a xlink:href="../../tables/rentals.html" xlink:title="rentals" target="_top">
<polygon fill="#ffffff" stroke="transparent" points="174,-73.7 174,-251.7 395,-251.7 395,-73.7 174,-73.7"/>
<polygon fill="#f5f5f5" stroke="transparent" points="176.5,-226.7 176.5,-249.7 393.5,-249.7 393.5,-226.7 176.5,-226.7"/>
<polygon fill="none" stroke="#000000" points="176.5,-226.7 176.5,-249.7 393.5,-249.7 393.5,-226.7 176.5,-226.7"/>
<text text-anchor="start" x="181.5" y="-235.3" font-family="Helvetica,sans-Serif" font-weight="bold" font-size="11.00" fill="#000000">rentals</text>
<text text-anchor="start" x="358.5437" y="-234.8" font-family="Helvetica,sans-Serif" font-size="11.00" fill="#000000">[table]</text>
<polygon fill="none" stroke="#000000" points="176.5,-204.7 176.5,-226.7 263.5,-226.7 263.5,-204.7 176.5,-204.7"/>
<image xlink:href="../../images/primaryKeys.png" width="11px" height="12px" preserveAspectRatio="xMinYMin meet" x="181.5" y="-221.7"/>
<text text-anchor="start" x="196.5" y="-211.8" font-family="Helvetica,sans-Serif" font-size="11.00" fill="#000000">rental_id</text>
<polygon fill="none" stroke="#000000" points="263.5,-204.7 263.5,-226.7 393.5,-226.7 393.5,-204.7 263.5,-204.7"/>
<text text-anchor="start" x="266.5" y="-212.4" font-family="Helvetica,sans-Serif" font-size="11.00" fill="#000000">integer[2000000000]</text>
<polygon fill="none" stroke="#000000" points="176.5,-182.7 176.5,-204.7 263.5,-204.7 263.5,-182.7 176.5,-182.7"/>
<image xlink:href="../../images/foreignKeys.png" width="11px" height="12px" preserveAspectRatio="xMinYMin meet" x="181.5" y="-199.7"/>
<text text-anchor="start" x="196.5" y="-189.8" font-family="Helvetica,sans-Serif" font-size="11.00" fill="#000000">user_id</text>
<polygon fill="none" stroke="#000000" points="263.5,-182.7 263.5,-204.7 393.5,-204.7 393.5,-182.7 263.5,-182.7"/>
<text text-anchor="start" x="266.5" y="-190.4" font-family="Helvetica,sans-Serif" font-size="11.00" fill="#000000">integer[2000000000]</text>
<polygon fill="none" stroke="#000000" points="176.5,-160.7 176.5,-182.7 263.5,-182.7 263.5,-160.7 176.5,-160.7"/>
<image xlink:href="../../images/foreignKeys.png" width="11px" height="12px" preserveAspectRatio="xMinYMin meet" x="181.5" y="-177.7"/>
<text text-anchor="start" x="196.5" y="-167.8" font-family="Helvetica,sans-Serif" font-size="11.00" fill="#000000">dvd_id</text>
<polygon fill="none" stroke="#000000" points="263.5,-160.7 263.5,-182.7 393.5,-182.7 393.5,-160.7 263.5,-160.7"/>
<text text-anchor="start" x="266.5" y="-168.4" font-family="Helvetica,sans-Serif" font-size="11.00" fill="#000000">integer[2000000000]</text>
<polygon fill="none" stroke="#000000" points="176.5,-138.7 176.5,-160.7 263.5,-160.7 263.5,-138.7 176.5,-138.7"/>
<text text-anchor="start" x="196.5" y="-145.8" font-family="Helvetica,sans-Serif" font-size="11.00" fill="#000000">rental_date</text>
<polygon fill="none" stroke="#000000" points="263.5,-138.7 263.5,-160.7 393.5,-160.7 393.5,-138.7 263.5,-138.7"/>
<text text-anchor="start" x="266.1372" y="-146.4" font-family="Helvetica,sans-Serif" font-size="11.00" fill="#000000">datetime[2000000000,10]</text>
<polygon fill="none" stroke="#000000" points="176.5,-116.7 176.5,-138.7 263.5,-138.7 263.5,-116.7 176.5,-116.7"/>
<text text-anchor="start" x="196.5" y="-123.8" font-family="Helvetica,sans-Serif" font-size="11.00" fill="#000000">return_date</text>
<polygon fill="none" stroke="#000000" points="263.5,-116.7 263.5,-138.7 393.5,-138.7 393.5,-116.7 263.5,-116.7"/>
<text text-anchor="start" x="266.1372" y="-124.4" font-family="Helvetica,sans-Serif" font-size="11.00" fill="#000000">datetime[2000000000,10]</text>
<polygon fill="none" stroke="#000000" points="176.5,-94.7 176.5,-116.7 263.5,-116.7 263.5,-94.7 176.5,-94.7"/>
<text text-anchor="start" x="196.5" y="-101.8" font-family="Helvetica,sans-Serif" font-size="11.00" fill="#000000">status</text>
<polygon fill="none" stroke="#000000" points="263.5,-94.7 263.5,-116.7 393.5,-116.7 393.5,-94.7 263.5,-94.7"/>
<text text-anchor="start" x="266.5" y="-102.4" font-family="Helvetica,sans-Serif" font-size="11.00" fill="#000000">text[2000000000]</text>
<polygon fill="#ffffff" stroke="transparent" points="176.5,-75.7 176.5,-94.7 211.5,-94.7 211.5,-75.7 176.5,-75.7"/>
<polygon fill="none" stroke="#000000" points="176.5,-75.7 176.5,-94.7 211.5,-94.7 211.5,-75.7 176.5,-75.7"/>
<text text-anchor="start" x="179.5" y="-81.8" font-family="Helvetica,sans-Serif" font-size="11.00" fill="#000000">&lt; 2</text>
<polygon fill="#ffffff" stroke="transparent" points="211.5,-75.7 211.5,-94.7 263.5,-94.7 263.5,-75.7 211.5,-75.7"/>
<polygon fill="none" stroke="#000000" points="211.5,-75.7 211.5,-94.7 263.5,-94.7 263.5,-75.7 211.5,-75.7"/>
<text text-anchor="start" x="228.1105" y="-81.8" font-family="Helvetica,sans-Serif" font-size="11.00" fill="#000000">2 rows</text>
<polygon fill="#ffffff" stroke="transparent" points="263.5,-75.7 263.5,-94.7 393.5,-94.7 393.5,-75.7 263.5,-75.7"/>
<polygon fill="none" stroke="#000000" points="263.5,-75.7 263.5,-94.7 393.5,-94.7 393.5,-75.7 263.5,-75.7"/>
<text text-anchor="start" x="374.9053" y="-81.8" font-family="Helvetica,sans-Serif" font-size="11.00" fill="#000000">0 &gt;</text>
<polygon fill="none" stroke="#000000" stroke-width="2" points="175,-74.7 175,-250.7 394,-250.7 394,-74.7 175,-74.7"/>
</a>
</g>
</g>
<!-- dvds -->
<g id="node2" class="node">
<title>dvds</title>
<g id="a_node2"><a xlink:href="../../tables/dvds.html" xlink:title="dvds" target="_top">
<polygon fill="#ffffff" stroke="transparent" points="8,-38.2 8,-143.2 125,-143.2 125,-38.2 8,-38.2"/>
<polygon fill="#f5f5f5" stroke="transparent" points="8.5,-119.7 8.5,-142.7 125.5,-142.7 125.5,-119.7 8.5,-119.7"/>
<polygon fill="none" stroke="#000000" points="8.5,-119.7 8.5,-142.7 125.5,-142.7 125.5,-119.7 8.5,-119.7"/>
<text text-anchor="start" x="13.5" y="-128.3" font-family="Helvetica,sans-Serif" font-weight="bold" font-size="11.00" fill="#000000">dvds</text>
<text text-anchor="start" x="90.5437" y="-127.8" font-family="Helvetica,sans-Serif" font-size="11.00" fill="#000000">[table]</text>
<polygon fill="none" stroke="#000000" points="8.5,-97.7 8.5,-119.7 125.5,-119.7 125.5,-97.7 8.5,-97.7"/>
<image xlink:href="../../images/primaryKeys.png" width="11px" height="12px" preserveAspectRatio="xMinYMin meet" x="13.5" y="-114.7"/>
<text text-anchor="start" x="28.5" y="-104.8" font-family="Helvetica,sans-Serif" font-size="11.00" fill="#000000">dvd_id</text>
<polygon fill="none" stroke="#000000" points="8.5,-75.7 8.5,-97.7 125.5,-97.7 125.5,-75.7 8.5,-75.7"/>
<image xlink:href="../../images/foreignKeys.png" width="11px" height="12px" preserveAspectRatio="xMinYMin meet" x="13.5" y="-92.7"/>
<text text-anchor="start" x="28.5" y="-82.8" font-family="Helvetica,sans-Serif" font-size="11.00" fill="#000000">genre_id</text>
<polygon fill="none" stroke="#000000" points="8.5,-56.7 8.5,-75.7 125.5,-75.7 125.5,-56.7 8.5,-56.7"/>
<text text-anchor="start" x="11.5" y="-62.8" font-family="Helvetica,sans-Serif" font-size="11.00" fill="#000000">...</text>
<polygon fill="#ffffff" stroke="transparent" points="8.5,-37.7 8.5,-56.7 47.5,-56.7 47.5,-37.7 8.5,-37.7"/>
<polygon fill="none" stroke="#000000" points="8.5,-37.7 8.5,-56.7 47.5,-56.7 47.5,-37.7 8.5,-37.7"/>
<text text-anchor="start" x="11.5" y="-43.8" font-family="Helvetica,sans-Serif" font-size="11.00" fill="#000000">&lt; 1</text>
<polygon fill="#ffffff" stroke="transparent" points="47.5,-37.7 47.5,-56.7 94.5,-56.7 94.5,-37.7 47.5,-37.7"/>
<polygon fill="none" stroke="#000000" points="47.5,-37.7 47.5,-56.7 94.5,-56.7 94.5,-37.7 47.5,-37.7"/>
<text text-anchor="start" x="59.1105" y="-43.8" font-family="Helvetica,sans-Serif" font-size="11.00" fill="#000000">3 rows</text>
<polygon fill="#ffffff" stroke="transparent" points="94.5,-37.7 94.5,-56.7 125.5,-56.7 125.5,-37.7 94.5,-37.7"/>
<polygon fill="none" stroke="#000000" points="94.5,-37.7 94.5,-56.7 125.5,-56.7 125.5,-37.7 94.5,-37.7"/>
<text text-anchor="start" x="106.9053" y="-43.8" font-family="Helvetica,sans-Serif" font-size="11.00" fill="#000000">1 &gt;</text>
</a>
</g>
</g>
<!-- rentals&#45;&gt;dvds -->
<g id="edge1" class="edge">
<title>rentals:w&#45;&gt;dvds:e</title>
<path fill="none" stroke="#000000" d="M162.4033,-166.7565C146.025,-151.9048 155.3329,-108.7 125.5,-108.7"/>
<polygon fill="#000000" stroke="#000000" points="168.9507,-169.0526 175.3087,-175.0972 172.7254,-170.3763 176.5,-171.7 176.5,-171.7 176.5,-171.7 172.7254,-170.3763 177.6913,-168.3028 168.9507,-169.0526 168.9507,-169.0526"/>
<ellipse fill="none" stroke="#000000" cx="165.931" cy="-167.9936" rx="3.2" ry="3.2"/>
</g>
<!-- users -->
<g id="node3" class="node">
<title>users</title>
<g id="a_node3"><a xlink:href="../../tables/users.html" xlink:title="users" target="_top">
<polygon fill="#ffffff" stroke="transparent" points="15.5,-164.2 15.5,-291.2 117.5,-291.2 117.5,-164.2 15.5,-164.2"/>
<polygon fill="#f5f5f5" stroke="transparent" points="15.5,-267.7 15.5,-290.7 117.5,-290.7 117.5,-267.7 15.5,-267.7"/>
<polygon fill="none" stroke="#000000" points="15.5,-267.7 15.5,-290.7 117.5,-290.7 117.5,-267.7 15.5,-267.7"/>
<text text-anchor="start" x="20.5" y="-276.3" font-family="Helvetica,sans-Serif" font-weight="bold" font-size="11.00" fill="#000000">users</text>
<text text-anchor="start" x="82.5437" y="-275.8" font-family="Helvetica,sans-Serif" font-size="11.00" fill="#000000">[table]</text>
<polygon fill="none" stroke="#000000" points="15.5,-245.7 15.5,-267.7 117.5,-267.7 117.5,-245.7 15.5,-245.7"/>
<image xlink:href="../../images/primaryKeys.png" width="11px" height="12px" preserveAspectRatio="xMinYMin meet" x="20.5" y="-262.7"/>
<text text-anchor="start" x="35.5" y="-252.8" font-family="Helvetica,sans-Serif" font-size="11.00" fill="#000000">user_id</text>
<polygon fill="#ffffff" stroke="transparent" points="15.5,-223.7 15.5,-245.7 117.5,-245.7 117.5,-223.7 15.5,-223.7"/>
<polygon fill="none" stroke="#000000" points="15.5,-223.7 15.5,-245.7 117.5,-245.7 117.5,-223.7 15.5,-223.7"/>
<text text-anchor="start" x="35.5" y="-230.8" font-family="Helvetica,sans-Serif" font-size="11.00" fill="#000000">phone</text>
<polygon fill="#ffffff" stroke="transparent" points="15.5,-201.7 15.5,-223.7 117.5,-223.7 117.5,-201.7 15.5,-201.7"/>
<polygon fill="none" stroke="#000000" points="15.5,-201.7 15.5,-223.7 117.5,-223.7 117.5,-201.7 15.5,-201.7"/>
<text text-anchor="start" x="35.5" y="-208.8" font-family="Helvetica,sans-Serif" font-size="11.00" fill="#000000">member_code</text>
<polygon fill="none" stroke="#000000" points="15.5,-182.7 15.5,-201.7 117.5,-201.7 117.5,-182.7 15.5,-182.7"/>
<text text-anchor="start" x="18.5" y="-188.8" font-family="Helvetica,sans-Serif" font-size="11.00" fill="#000000">...</text>
<polygon fill="#ffffff" stroke="transparent" points="15.5,-163.7 15.5,-182.7 42.5,-182.7 42.5,-163.7 15.5,-163.7"/>
<polygon fill="none" stroke="#000000" points="15.5,-163.7 15.5,-182.7 42.5,-182.7 42.5,-163.7 15.5,-163.7"/>
<text text-anchor="start" x="18.5" y="-169.8" font-family="Helvetica,sans-Serif" font-size="11.00" fill="#000000"> &#160;</text>
<polygon fill="#ffffff" stroke="transparent" points="42.5,-163.7 42.5,-182.7 88.5,-182.7 88.5,-163.7 42.5,-163.7"/>
<polygon fill="none" stroke="#000000" points="42.5,-163.7 42.5,-182.7 88.5,-182.7 88.5,-163.7 42.5,-163.7"/>
<text text-anchor="start" x="53.1105" y="-169.8" font-family="Helvetica,sans-Serif" font-size="11.00" fill="#000000">3 rows</text>
<polygon fill="#ffffff" stroke="transparent" points="88.5,-163.7 88.5,-182.7 117.5,-182.7 117.5,-163.7 88.5,-163.7"/>
<polygon fill="none" stroke="#000000" points="88.5,-163.7 88.5,-182.7 117.5,-182.7 117.5,-163.7 88.5,-163.7"/>
<text text-anchor="start" x="98.9053" y="-169.8" font-family="Helvetica,sans-Serif" font-size="11.00" fill="#000000">1 &gt;</text>
</a>
</g>
</g>
<!-- rentals&#45;&gt;users -->
<g id="edge2" class="edge">
<title>rentals:w&#45;&gt;users:e</title>
<path fill="none" stroke="#000000" d="M162.4759,-197.6409C142.2368,-211.4332 150.0174,-256.7 117.5,-256.7"/>
<polygon fill="#000000" stroke="#000000" points="168.7983,-195.8643 177.4739,-197.1658 172.6492,-194.7822 176.5,-193.7 176.5,-193.7 176.5,-193.7 172.6492,-194.7822 175.5261,-190.2342 168.7983,-195.8643 168.7983,-195.8643"/>
<ellipse fill="none" stroke="#000000" cx="165.7176" cy="-196.73" rx="3.2" ry="3.2"/>
</g>
</g>
</svg>
