<?xml version="1.0" encoding="UTF-8" standalone="no"?>
<!DOCTYPE svg PUBLIC "-//W3C//DTD SVG 1.1//EN"
 "http://www.w3.org/Graphics/SVG/1.1/DTD/svg11.dtd">
<!-- Generated by graphviz version 2.40.1 (20161225.0304)
 -->
<!-- Title: twoDegreesRelationshipsDiagram Pages: 1 -->
<svg width="396pt" height="333pt"
 viewBox="0.00 0.00 396.00 332.70" xmlns="http://www.w3.org/2000/svg" xmlns:xlink="http://www.w3.org/1999/xlink">
<g id="graph0" class="graph" transform="scale(1 1) rotate(0) translate(4 328.7)">
<title>twoDegreesRelationshipsDiagram</title>
<polygon fill="#ffffff" stroke="transparent" points="-4,4 -4,-328.7 392,-328.7 392,4 -4,4"/>
<text text-anchor="middle" x="72.4936" y="-7.3" font-family="Helvetica,sans-Serif" font-size="11.00" fill="#000000">Generated by SchemaSpy</text>
<!-- rentals -->
<g id="node1" class="node">
<title>rentals</title>
<g id="a_node1"><a xlink:href="../../tables/rentals.html" xlink:title="rentals" target="_top">
<polygon fill="#ffffff" stroke="transparent" points="293,-115.2 293,-242.2 380,-242.2 380,-115.2 293,-115.2"/>
<polygon fill="#f5f5f5" stroke="transparent" points="293.5,-218.7 293.5,-241.7 380.5,-241.7 380.5,-218.7 293.5,-218.7"/>
<polygon fill="none" stroke="#000000" points="293.5,-218.7 293.5,-241.7 380.5,-241.7 380.5,-218.7 293.5,-218.7"/>
<text text-anchor="start" x="298.5" y="-227.3" font-family="Helvetica,sans-Serif" font-weight="bold" font-size="11.00" fill="#000000">rentals</text>
<text text-anchor="start" x="345.5437" y="-226.8" font-family="Helvetica,sans-Serif" font-size="11.00" fill="#000000">[table]</text>
<polygon fill="none" stroke="#000000" points="293.5,-196.7 293.5,-218.7 380.5,-218.7 380.5,-196.7 293.5,-196.7"/>
<image xlink:href="../../images/primaryKeys.png" width="11px" height="12px" preserveAspectRatio="xMinYMin meet" x="298.5" y="-213.7"/>
<text text-anchor="start" x="313.5" y="-203.8" font-family="Helvetica,sans-Serif" font-size="11.00" fill="#000000">rental_id</text>
<polygon fill="none" stroke="#000000" points="293.5,-174.7 293.5,-196.7 380.5,-196.7 380.5,-174.7 293.5,-174.7"/>
<image xlink:href="../../images/foreignKeys.png" width="11px" height="12px" preserveAspectRatio="xMinYMin meet" x="298.5" y="-191.7"/>
<text text-anchor="start" x="313.5" y="-181.8" font-family="Helvetica,sans-Serif" font-size="11.00" fill="#000000">user_id</text>
<polygon fill="none" stroke="#000000" points="293.5,-152.7 293.5,-174.7 380.5,-174.7 380.5,-152.7 293.5,-152.7"/>
<image xlink:href="../../images/foreignKeys.png" width="11px" height="12px" preserveAspectRatio="xMinYMin meet" x="298.5" y="-169.7"/>
<text text-anchor="start" x="313.5" y="-159.8" font-family="Helvetica,sans-Serif" font-size="11.00" fill="#000000">dvd_id</text>
<polygon fill="none" stroke="#000000" points="293.5,-133.7 293.5,-152.7 380.5,-152.7 380.5,-133.7 293.5,-133.7"/>
<text text-anchor="start" x="296.5" y="-139.8" font-family="Helvetica,sans-Serif" font-size="11.00" fill="#000000">...</text>
<polygon fill="#ffffff" stroke="transparent" points="293.5,-114.7 293.5,-133.7 322.5,-133.7 322.5,-114.7 293.5,-114.7"/>
<polygon fill="none" stroke="#000000" points="293.5,-114.7 293.5,-133.7 322.5,-133.7 322.5,-114.7 293.5,-114.7"/>
<text text-anchor="start" x="296.5" y="-120.8" font-family="Helvetica,sans-Serif" font-size="11.00" fill="#000000">&lt; 2</text>
<polygon fill="#ffffff" stroke="transparent" points="322.5,-114.7 322.5,-133.7 364.5,-133.7 364.5,-114.7 322.5,-114.7"/>
<polygon fill="none" stroke="#000000" points="322.5,-114.7 322.5,-133.7 364.5,-133.7 364.5,-114.7 322.5,-114.7"/>
<text text-anchor="start" x="329.1105" y="-120.8" font-family="Helvetica,sans-Serif" font-size="11.00" fill="#000000">2 rows</text>
<polygon fill="#ffffff" stroke="transparent" points="364.5,-114.7 364.5,-133.7 380.5,-133.7 380.5,-114.7 364.5,-114.7"/>
<polygon fill="none" stroke="#000000" points="364.5,-114.7 364.5,-133.7 380.5,-133.7 380.5,-114.7 364.5,-114.7"/>
<text text-anchor="start" x="371.3862" y="-120.8" font-family="Helvetica,sans-Serif" font-size="11.00" fill="#000000"> &#160;</text>
</a>
</g>
</g>
<!-- dvds -->
<g id="node2" class="node">
<title>dvds</title>
<g id="a_node2"><a xlink:href="../../tables/dvds.html" xlink:title="dvds" target="_top">
<polygon fill="#ffffff" stroke="transparent" points="86,-38.2 86,-99.2 166,-99.2 166,-38.2 86,-38.2"/>
<polygon fill="#f5f5f5" stroke="transparent" points="86,-75.7 86,-98.7 166,-98.7 166,-75.7 86,-75.7"/>
<polygon fill="none" stroke="#000000" points="86,-75.7 86,-98.7 166,-98.7 166,-75.7 86,-75.7"/>
<text text-anchor="start" x="91" y="-84.3" font-family="Helvetica,sans-Serif" font-weight="bold" font-size="11.00" fill="#000000">dvds</text>
<text text-anchor="start" x="131.0437" y="-83.8" font-family="Helvetica,sans-Serif" font-size="11.00" fill="#000000">[table]</text>
<polygon fill="none" stroke="#000000" points="86,-56.7 86,-75.7 166,-75.7 166,-56.7 86,-56.7"/>
<text text-anchor="start" x="89" y="-62.8" font-family="Helvetica,sans-Serif" font-size="11.00" fill="#000000">...</text>
<polygon fill="#ffffff" stroke="transparent" points="86,-37.7 86,-56.7 107,-56.7 107,-37.7 86,-37.7"/>
<polygon fill="none" stroke="#000000" points="86,-37.7 86,-56.7 107,-56.7 107,-37.7 86,-37.7"/>
<text text-anchor="start" x="88.7027" y="-43.8" font-family="Helvetica,sans-Serif" font-size="11.00" fill="#000000">&lt; 1</text>
<polygon fill="#ffffff" stroke="transparent" points="107,-37.7 107,-56.7 145,-56.7 145,-37.7 107,-37.7"/>
<polygon fill="none" stroke="#000000" points="107,-37.7 107,-56.7 145,-56.7 145,-37.7 107,-37.7"/>
<text text-anchor="start" x="109.8053" y="-43.8" font-family="Helvetica,sans-Serif" font-size="11.00" fill="#000000">3 rows</text>
<polygon fill="#ffffff" stroke="transparent" points="145,-37.7 145,-56.7 166,-56.7 166,-37.7 145,-37.7"/>
<polygon fill="none" stroke="#000000" points="145,-37.7 145,-56.7 166,-56.7 166,-37.7 145,-37.7"/>
<text text-anchor="start" x="147.7027" y="-43.8" font-family="Helvetica,sans-Serif" font-size="11.00" fill="#000000">1 &gt;</text>
</a>
</g>
</g>
<!-- rentals&#45;&gt;dvds -->
<g id="edge1" class="edge">
<title>rentals:w&#45;&gt;dvds:e</title>
<path fill="none" stroke="#000000" d="M279.2637,-159.5452C266.7367,-149.768 270.356,-124.9808 252,-109.7 219.0029,-82.231 208.9343,-65.7 166,-65.7"/>
<polygon fill="#000000" stroke="#000000" points="285.8204,-161.4587 292.4914,-167.1558 289.6602,-162.5794 293.5,-163.7 293.5,-163.7 293.5,-163.7 289.6602,-162.5794 294.5086,-160.2442 285.8204,-161.4587 285.8204,-161.4587"/>
<ellipse fill="none" stroke="#000000" cx="282.7485" cy="-160.5622" rx="3.2" ry="3.2"/>
</g>
<!-- users -->
<g id="node3" class="node">
<title>users</title>
<g id="a_node3"><a xlink:href="../../tables/users.html" xlink:title="users" target="_top">
<polygon fill="#ffffff" stroke="transparent" points="8,-120.7 8,-320.7 244,-320.7 244,-120.7 8,-120.7"/>
<polygon fill="#f5f5f5" stroke="transparent" points="10,-295.7 10,-318.7 242,-318.7 242,-295.7 10,-295.7"/>
<polygon fill="none" stroke="#000000" points="10,-295.7 10,-318.7 242,-318.7 242,-295.7 10,-295.7"/>
<text text-anchor="start" x="15" y="-304.3" font-family="Helvetica,sans-Serif" font-weight="bold" font-size="11.00" fill="#000000">users</text>
<text text-anchor="start" x="207.0437" y="-303.8" font-family="Helvetica,sans-Serif" font-size="11.00" fill="#000000">[table]</text>
<polygon fill="none" stroke="#000000" points="10,-273.7 10,-295.7 112,-295.7 112,-273.7 10,-273.7"/>
<image xlink:href="../../images/primaryKeys.png" width="11px" height="12px" preserveAspectRatio="xMinYMin meet" x="15" y="-290.7"/>
<text text-anchor="start" x="30" y="-280.8" font-family="Helvetica,sans-Serif" font-size="11.00" fill="#000000">user_id</text>
<polygon fill="none" stroke="#000000" points="112,-273.7 112,-295.7 242,-295.7 242,-273.7 112,-273.7"/>
<text text-anchor="start" x="115" y="-281.4" font-family="Helvetica,sans-Serif" font-size="11.00" fill="#000000">integer[2000000000]</text>
<polygon fill="none" stroke="#000000" points="10,-251.7 10,-273.7 112,-273.7 112,-251.7 10,-251.7"/>
<text text-anchor="start" x="30" y="-258.8" font-family="Helvetica,sans-Serif" font-size="11.00" fill="#000000">name</text>
<polygon fill="none" stroke="#000000" points="112,-251.7 112,-273.7 242,-273.7 242,-251.7 112,-251.7"/>
<text text-anchor="start" x="115" y="-259.4" font-family="Helvetica,sans-Serif" font-size="11.00" fill="#000000">text[2000000000]</text>
<polygon fill="none" stroke="#000000" points="10,-229.7 10,-251.7 112,-251.7 112,-229.7 10,-229.7"/>
<text text-anchor="start" x="30" y="-236.8" font-family="Helvetica,sans-Serif" font-size="11.00" fill="#000000">address</text>
<polygon fill="none" stroke="#000000" points="112,-229.7 112,-251.7 242,-251.7 242,-229.7 112,-229.7"/>
<text text-anchor="start" x="115" y="-237.4" font-family="Helvetica,sans-Serif" font-size="11.00" fill="#000000">text[2000000000]</text>
<polygon fill="#ffffff" stroke="transparent" points="10,-207.7 10,-229.7 112,-229.7 112,-207.7 10,-207.7"/>
<polygon fill="none" stroke="#000000" points="10,-207.7 10,-229.7 112,-229.7 112,-207.7 10,-207.7"/>
<text text-anchor="start" x="30" y="-214.8" font-family="Helvetica,sans-Serif" font-size="11.00" fill="#000000">phone</text>
<polygon fill="none" stroke="#000000" points="112,-207.7 112,-229.7 242,-229.7 242,-207.7 112,-207.7"/>
<text text-anchor="start" x="115" y="-215.4" font-family="Helvetica,sans-Serif" font-size="11.00" fill="#000000">text[2000000000]</text>
<polygon fill="none" stroke="#000000" points="10,-185.7 10,-207.7 112,-207.7 112,-185.7 10,-185.7"/>
<text text-anchor="start" x="30" y="-192.8" font-family="Helvetica,sans-Serif" font-size="11.00" fill="#000000">birth_date</text>
<polygon fill="none" stroke="#000000" points="112,-185.7 112,-207.7 242,-207.7 242,-185.7 112,-185.7"/>
<text text-anchor="start" x="115" y="-193.4" font-family="Helvetica,sans-Serif" font-size="11.00" fill="#000000">date[2000000000,10]</text>
<polygon fill="none" stroke="#000000" points="10,-163.7 10,-185.7 112,-185.7 112,-163.7 10,-163.7"/>
<text text-anchor="start" x="30" y="-170.8" font-family="Helvetica,sans-Serif" font-size="11.00" fill="#000000">created_at</text>
<polygon fill="none" stroke="#000000" points="112,-163.7 112,-185.7 242,-185.7 242,-163.7 112,-163.7"/>
<text text-anchor="start" x="114.6372" y="-171.4" font-family="Helvetica,sans-Serif" font-size="11.00" fill="#000000">datetime[2000000000,10]</text>
<polygon fill="#ffffff" stroke="transparent" points="10,-141.7 10,-163.7 112,-163.7 112,-141.7 10,-141.7"/>
<polygon fill="none" stroke="#000000" points="10,-141.7 10,-163.7 112,-163.7 112,-141.7 10,-141.7"/>
<text text-anchor="start" x="30" y="-148.8" font-family="Helvetica,sans-Serif" font-size="11.00" fill="#000000">member_code</text>
<polygon fill="none" stroke="#000000" points="112,-141.7 112,-163.7 242,-163.7 242,-141.7 112,-141.7"/>
<text text-anchor="start" x="115" y="-149.4" font-family="Helvetica,sans-Serif" font-size="11.00" fill="#000000">text[2000000000]</text>
<polygon fill="#ffffff" stroke="transparent" points="10,-122.7 10,-141.7 52,-141.7 52,-122.7 10,-122.7"/>
<polygon fill="none" stroke="#000000" points="10,-122.7 10,-141.7 52,-141.7 52,-122.7 10,-122.7"/>
<text text-anchor="start" x="13" y="-128.8" font-family="Helvetica,sans-Serif" font-size="11.00" fill="#000000">&lt; 0</text>
<polygon fill="#ffffff" stroke="transparent" points="52,-122.7 52,-141.7 112,-141.7 112,-122.7 52,-122.7"/>
<polygon fill="none" stroke="#000000" points="52,-122.7 52,-141.7 112,-141.7 112,-122.7 52,-122.7"/>
<text text-anchor="start" x="76.6105" y="-128.8" font-family="Helvetica,sans-Serif" font-size="11.00" fill="#000000">3 rows</text>
<polygon fill="#ffffff" stroke="transparent" points="112,-122.7 112,-141.7 242,-141.7 242,-122.7 112,-122.7"/>
<polygon fill="none" stroke="#000000" points="112,-122.7 112,-141.7 242,-141.7 242,-122.7 112,-122.7"/>
<text text-anchor="start" x="223.4053" y="-128.8" font-family="Helvetica,sans-Serif" font-size="11.00" fill="#000000">1 &gt;</text>
<polygon fill="none" stroke="#000000" stroke-width="2" points="9,-121.7 9,-319.7 243,-319.7 243,-121.7 9,-121.7"/>
</a>
</g>
</g>
<!-- rentals&#45;&gt;users -->
<g id="edge2" class="edge">
<title>rentals:w&#45;&gt;users:e</title>
<path fill="none" stroke="#000000" d="M279.4167,-189.7035C254.027,-208.2249 285.5915,-284.7 242,-284.7"/>
<polygon fill="#000000" stroke="#000000" points="285.8049,-187.8876 294.4844,-189.1628 289.6524,-186.7938 293.5,-185.7 293.5,-185.7 293.5,-185.7 289.6524,-186.7938 292.5156,-182.2372 285.8049,-187.8876 285.8049,-187.8876"/>
<ellipse fill="none" stroke="#000000" cx="282.7268" cy="-188.7626" rx="3.2" ry="3.2"/>
</g>
</g>
</svg>
